<svg width="323" height="303" viewBox="0 0 323 303" fill="none" xmlns="http://www.w3.org/2000/svg">
<path d="M223.004 168.98C223.052 170.731 222.875 172.418 222.313 174.073C221.044 177.817 219.003 181.046 215.999 183.617C214.521 184.87 212.866 185.738 210.89 185.995C209.749 186.139 208.656 186.043 207.564 185.705C197.859 182.878 189.344 177.993 181.937 171.101C178.997 168.337 176.25 165.365 173.663 162.232C172.024 160.24 170.546 158.135 169.277 155.982C167.895 153.781 166.706 151.451 165.646 149.105C164.441 146.342 163.396 143.45 162.513 140.51C162.223 139.594 161.998 138.694 161.725 137.778C161.613 137.425 161.468 137.136 161.292 136.702C160.777 137.184 160.729 137.714 160.585 138.196C159.701 140.702 158.898 143.257 157.95 145.78C157.821 146.165 157.66 146.551 157.516 146.952C157.323 147.45 157.098 147.949 156.889 148.447C155.684 151.274 154.19 153.974 152.471 156.528C150.993 158.761 149.354 160.882 147.603 162.939C145.112 165.847 142.477 168.562 139.634 171.101C133.159 176.853 125.864 181.223 117.606 183.89C116.867 184.131 116.128 184.372 115.405 184.629C113.075 185.545 110.842 185.143 108.721 184.051C107.837 183.601 106.986 182.99 106.231 182.315C105.781 181.898 105.315 181.464 104.913 181.014C104.737 180.837 104.592 180.644 104.463 180.468C102.294 177.672 100.897 174.587 100.206 171.229C100.013 170.346 99.9486 169.382 99.9486 168.289C99.9647 167.116 100.27 166.088 100.864 165.22C101.009 165.108 101.186 165.011 101.362 164.915C102.776 164.16 104.158 163.357 105.604 162.65C115.582 157.781 123.984 151.194 130.797 142.839C132.275 141.088 133.625 139.24 134.926 137.344C135.537 136.461 136.115 135.545 136.693 134.645C137.995 132.573 139.071 130.404 140.003 128.17C140.919 126.001 141.69 123.752 142.365 121.487C142.413 121.358 142.445 121.197 142.493 121.069C143.988 115.911 145.112 110.722 145.916 105.436C146.124 104.07 146.301 102.705 146.478 101.339C146.655 99.7964 146.847 98.2861 147.04 96.7437C147.619 91.5702 148.229 86.4128 148.743 81.2393C148.824 80.5002 148.92 79.7451 148.984 79.006C149.161 77.319 149.306 75.632 149.466 73.945C149.788 70.4746 150.077 67.0042 150.318 63.5337C150.446 61.8949 150.559 60.224 150.639 58.5691C150.687 57.6533 150.752 56.7214 150.768 55.8217C151.009 51.7568 151.153 47.6758 151.266 43.6431C151.33 40.8314 151.378 38.0197 151.378 35.208V33.1354C151.378 31.0307 151.362 28.9099 151.314 26.8212C151.298 25.8732 151.266 24.9092 151.25 23.9613C151.186 21.1657 151.105 18.4022 150.993 15.6226C150.912 12.6342 150.8 9.6458 150.704 6.65738C150.687 6.07898 150.704 5.48451 150.704 4.79364C154.945 1.59635 159.508 0.375278 164.585 1.29108C166.722 1.66062 168.634 2.65676 170.401 3.8939C171.574 4.7133 172.088 5.75764 172.008 7.21972C171.799 10.1599 171.687 13.1323 171.59 16.0886C171.574 16.2171 171.574 16.3456 171.574 16.4742C171.462 19.2377 171.398 22.0011 171.365 24.7646C171.349 25.6804 171.317 26.6123 171.317 27.512C171.301 29.9542 171.269 32.3803 171.269 34.8064C171.253 38.0036 171.269 41.217 171.349 44.3982C171.398 47.5152 171.478 50.6161 171.655 53.7009C171.655 54.2471 171.703 54.7774 171.719 55.3236C171.847 57.9586 172.024 60.5774 172.201 63.1963C172.442 66.7471 172.699 70.2978 173.004 73.8165C173.004 73.8968 173.02 73.9932 173.02 74.0735C173.277 76.9816 173.534 79.8897 173.84 82.7978C174.193 86.2361 174.547 89.7065 174.948 93.1448C175.125 94.639 175.27 96.1332 175.462 97.6114C175.816 100.535 176.169 103.428 176.635 106.32C177.133 109.453 177.712 112.602 178.451 115.686C178.82 117.261 179.254 118.819 179.688 120.378C180.186 122.129 180.7 123.881 181.246 125.632C181.616 126.821 182.05 127.994 182.548 129.118C183.496 131.448 184.685 133.681 186.034 135.85V135.866C186.083 135.931 186.115 136.011 186.163 136.075C187.77 138.63 189.489 141.056 191.385 143.353V143.369C195.948 148.993 201.233 153.861 207.291 158.022C210.584 160.272 214.007 162.312 217.638 163.951C218.939 164.562 220.144 165.301 221.397 165.992C222.49 166.682 222.988 167.679 223.004 168.98Z" fill="#E77AEA"/>
<path d="M157.918 145.747C157.789 146.133 157.629 146.518 157.484 146.92C155.17 152.833 151.7 158.07 147.571 162.89C145.08 165.799 142.445 168.514 139.602 171.052C133.127 176.804 125.832 181.174 117.574 183.842C116.835 184.083 116.096 184.324 115.373 184.581C113.043 185.496 110.81 185.095 108.689 184.002C107.806 183.552 106.954 182.942 106.199 182.267C105.749 181.849 105.283 181.415 104.881 180.966C104.705 180.789 104.56 180.596 104.432 180.419C102.262 177.624 100.865 174.539 100.174 171.181C99.981 170.297 99.9167 169.333 99.9167 168.241C99.9328 167.068 100.238 166.04 100.833 165.172C100.977 165.059 101.154 164.963 101.331 164.867C102.745 164.112 104.126 163.308 105.572 162.601C118.618 156.239 128.998 146.904 136.678 134.597C139.296 130.371 141.064 125.792 142.478 121.02C144.357 114.546 145.659 107.974 146.462 101.307C147.346 93.8676 148.23 86.4287 148.969 78.9898C149.643 72.1775 150.222 65.3813 150.607 58.5529C151.105 50.0696 151.395 41.6346 151.346 33.1353C152.953 41.2972 154.319 50.0214 155.604 60.5612C157.468 75.664 158.593 91.1684 158.962 106.641C159.283 120.522 158.962 133.376 157.918 145.747Z" fill="#C668DD"/>
<g opacity="0.8">
<path opacity="0.8" d="M182.484 129.15L182.163 129.295C181.874 129.423 181.649 129.536 181.408 129.616C175.544 131.914 169.39 133.087 163.092 133.087C161.324 133.087 159.525 132.974 157.726 132.797C154.062 132.428 150.287 132.042 146.543 130.869C145.161 130.436 143.812 129.889 142.51 129.359L141.659 129.038C141.241 128.861 140.839 128.62 140.406 128.363L139.956 128.106C140.871 125.937 141.643 123.688 142.318 121.422C142.51 121.47 142.687 121.502 142.88 121.567C145.692 122.691 148.808 123.334 152.375 123.607C155.846 123.848 158.898 123.961 161.71 123.977C167.237 123.993 172.668 122.965 178.371 120.844L179.625 120.41C180.123 122.161 180.637 123.912 181.183 125.664C181.553 126.853 181.986 128.026 182.484 129.15Z" fill="#E8A9F7"/>
<path opacity="0.8" d="M176.587 106.335C176.443 106.448 176.282 106.528 176.138 106.625C173.599 107.974 170.755 108.826 167.462 109.259C165.517 109.517 163.654 109.645 161.87 109.645C159.235 109.645 156.777 109.356 154.447 108.794C151.62 108.087 148.888 107.026 146.35 105.661C146.173 105.58 146.028 105.468 145.868 105.371C146.077 104.006 146.253 102.64 146.43 101.274C146.607 99.7319 146.8 98.2216 146.992 96.6792L147.908 97.113C148.149 97.2255 148.358 97.3058 148.551 97.4183C151.732 99.041 154.833 100.021 157.966 100.358C161.003 100.712 163.991 100.375 166.514 100.005C169.309 99.6194 171.944 98.7679 174.129 98.0127C174.338 97.9324 174.579 97.8681 174.836 97.7717L175.399 97.595C175.752 100.551 176.122 103.459 176.587 106.335Z" fill="#E8A9F7"/>
<path opacity="0.8" d="M191.321 143.402V143.418C191.257 143.546 191.193 143.627 191.128 143.739C186.469 149.603 180.54 153.54 173.503 155.42C172.186 155.773 170.643 155.966 169.342 155.966H169.261C167.88 153.765 166.691 151.435 165.63 149.089L166.145 149.025C169.824 148.607 173.423 147.322 177.134 144.992C180.637 142.823 183.368 140.108 185.489 136.654L185.971 135.898C186.019 135.963 186.051 136.043 186.099 136.107C187.706 138.678 189.441 141.104 191.321 143.402Z" fill="#E8A9F7"/>
<path opacity="0.8" d="M156.858 148.414C155.653 151.242 154.158 153.941 152.439 156.496C145.097 156.416 134.364 149.764 130.733 142.791C132.211 141.04 133.561 139.192 134.862 137.296L135.36 137.746C135.537 137.891 135.682 138.035 135.842 138.18L136.838 139.192C137.465 139.835 138.076 140.493 138.75 141.104C143.008 145.137 148.182 147.482 154.126 148.109L156.858 148.414Z" fill="#E8A9F7"/>
<path opacity="0.8" d="M173.792 82.8299C173.615 82.8942 173.439 82.9584 173.278 83.0227C169.711 84.1474 166.112 84.7097 162.578 84.7097C159.75 84.7097 156.954 84.3562 154.175 83.6332C152.247 83.1352 150.238 82.2194 148.696 81.2071C148.776 80.4681 148.873 79.7129 148.937 78.9739C149.114 77.2869 149.258 75.5999 149.419 73.9128L149.901 74.1056C157.436 77.2226 164.859 77.2708 172.603 74.2502L172.973 74.1056C173.23 77.0137 173.487 79.9379 173.792 82.8299Z" fill="#E8A9F7"/>
<path opacity="0.8" d="M171.302 44.4141C169.422 45.105 166.434 45.4263 163.22 45.4263C158.69 45.4263 153.821 44.7997 151.203 43.6108C151.267 40.7991 151.315 37.9874 151.315 35.1757L151.556 35.24C158.722 36.9109 164.843 36.7985 170.836 34.9347L171.206 34.8223C171.19 38.0196 171.206 41.2329 171.302 44.4141Z" fill="#E8A9F7"/>
<path opacity="0.8" d="M172.137 63.2284C172.121 63.2445 172.073 63.2445 172.025 63.2766C167.992 64.5298 164.152 65.1886 160.36 65.1886C157.87 65.1886 155.428 64.8994 152.986 64.3692C152.279 64.1924 151.572 63.9514 150.849 63.7265C150.656 63.6622 150.463 63.5979 150.271 63.5337C150.399 61.8949 150.512 60.2239 150.592 58.5691C150.64 57.6532 150.704 56.7214 150.72 55.8216L150.977 55.8859C158.127 57.5247 164.698 56.8981 171.125 53.9579L171.607 53.749C171.607 54.2953 171.655 54.8255 171.671 55.3718C171.8 57.9906 171.977 60.6095 172.137 63.2284Z" fill="#E8A9F7"/>
<path opacity="0.8" d="M171.543 16.1046C171.527 16.2331 171.527 16.3616 171.527 16.4902C171.414 19.2536 171.35 22.0171 171.318 24.7806C168.956 25.6322 165.662 26.082 162.288 26.082C158.223 26.082 154.046 25.4072 151.202 23.9612C151.138 21.1656 151.058 18.4021 150.945 15.6226L151.732 16.0082C154.416 17.3738 157.388 18.0004 161.34 18.0165C164.875 17.9683 168.056 17.4702 171.061 16.2813L171.543 16.1046Z" fill="#E8A9F7"/>
</g>
<path d="M322.779 214.079C322.827 216.875 322.763 219.687 322.586 222.482C321.912 233.713 319.727 244.654 315.212 255.017C312.464 261.316 309.042 267.196 304.656 272.53C301.298 276.579 297.442 280.081 293.136 283.118C281.118 291.585 267.847 297.209 253.548 300.454C249.081 301.466 244.566 302.125 240.003 302.527C235.778 302.896 231.568 302.977 227.359 302.768C219.775 302.382 212.577 300.711 205.717 297.353C200.431 294.783 196.478 290.991 193.506 286.01C190.903 281.704 189.04 277.093 187.577 272.305C184.942 263.822 183.207 255.162 182.131 246.357C180.749 235.014 180.251 223.655 180.315 209.902C180.315 208.793 180.315 207.701 180.331 206.576C180.444 203.636 180.54 197.739 180.894 191.859C181.311 185.047 181.874 178.25 182.468 171.422C182.886 166.57 183.416 161.718 183.978 156.882C184.557 151.917 185.216 146.984 185.923 142.036C186.662 136.862 187.417 131.689 188.284 126.531C189.698 117.968 191.16 109.404 193.635 101.082C194.615 97.7879 195.82 94.5425 197.169 91.3773C199.37 86.1556 202.584 81.6087 206.89 77.9134C211.388 74.0573 216.562 71.6634 222.41 70.7958C225.206 70.362 227.969 70.619 230.749 71.1814C237.176 72.4507 243.136 74.9089 248.663 78.4114C258.287 84.5168 267.076 91.6344 275.045 99.8124C289.875 115.028 301.153 132.589 309.444 152.11C314.762 164.626 318.586 177.608 320.787 191.056C322.024 198.687 322.763 206.367 322.779 214.079Z" fill="#85B7FF"/>
<path d="M322.779 214.079C322.827 216.875 322.763 219.687 322.586 222.482C321.911 233.713 319.726 244.654 315.212 255.017C312.464 261.316 309.042 267.196 304.656 272.53C301.298 276.579 297.442 280.081 293.136 283.118C281.118 291.585 267.847 297.209 253.547 300.454C249.081 301.466 244.566 302.125 240.003 302.527C235.777 302.896 231.568 302.977 227.359 302.768C219.775 302.382 212.577 300.711 205.717 297.353C200.431 294.783 196.478 290.991 193.506 286.01C190.903 281.704 189.039 277.093 187.577 272.305C184.942 263.822 183.207 255.162 182.131 246.357C180.749 235.014 180.251 223.655 180.315 209.902C189.489 232.797 206.263 247.289 229.511 255.114C229.881 256.463 230.026 257.925 230.99 259.114C231.905 260.287 232.982 261.235 234.283 261.926C235.585 262.617 236.966 263.051 238.445 263.163C239.939 263.292 241.321 262.858 242.686 262.215C243.168 262.521 243.618 262.826 244.068 263.131C245.691 264.143 247.442 264.738 249.386 264.673C252.744 264.593 254.833 262.263 254.929 259.741C254.945 259.387 255.058 259.05 255.122 258.697C258.946 258.247 262.77 257.958 266.529 257.315C270.273 256.672 273.952 255.676 277.744 254.825C277.985 255.114 278.258 255.435 278.531 255.756C279.704 257.186 281.23 258.006 283.014 258.327C287.255 259.13 290.678 255.419 289.183 251.322C289.055 251.001 288.942 250.647 288.814 250.278C289.328 249.667 290.051 249.426 290.678 249.105C297.088 245.683 302.888 241.425 308.03 236.283C314.424 229.857 319.501 222.546 322.779 214.079Z" fill="#629ADD"/>
<path d="M233.512 251.017C231.536 250.937 229.527 250.037 227.969 248.237C226.442 246.47 226.234 243.401 227.422 241.377C228.563 239.465 230.829 238.437 233.094 238.999C235.938 239.706 237.946 241.457 238.846 244.285C239.955 247.755 237.528 251.001 233.512 251.017Z" fill="#629ADD"/>
<path d="M250.543 244.863C250.575 247.048 248.888 248.703 246.671 248.591C244.855 248.494 243.345 247.691 242.237 246.261C240.823 244.429 241.433 242.035 243.506 241.007C245.643 239.947 248.535 240.718 249.852 242.71C250.286 243.353 250.543 244.06 250.543 244.863Z" fill="#629ADD"/>
<path d="M218.264 192.051C220.964 192.18 223.952 193.417 226.426 195.747C229.045 198.221 230.09 201.29 228.852 204.776C227.631 208.247 224.98 210.143 221.381 210.593C218.072 211.01 215.18 209.902 212.721 207.684C211.034 206.158 209.829 204.294 209.187 202.093C208.094 198.285 209.894 194.462 213.525 192.855C214.762 192.292 216.063 192.035 218.264 192.051Z" fill="#F490F4"/>
<path d="M307.548 192.052C310.263 192.052 312.191 192.566 313.83 193.867C316.16 195.715 317.14 198.157 316.706 201.113C316.079 205.355 311.693 210.994 304.913 210.689C300.527 210.48 296.928 207.251 296.414 203.057C296.108 200.551 296.88 198.334 298.55 196.502C301.121 193.642 304.383 192.228 307.548 192.052Z" fill="#F490F4"/>
<path d="M283.126 135.448C283.11 140.445 278.146 143.337 273.791 140.863C272.747 140.268 271.815 139.497 271.14 138.517C270.032 136.894 268.955 135.256 267.975 133.569C265.067 128.588 262.272 123.543 259.299 118.61C256.536 114.031 253.531 109.597 250.013 105.548C248.743 104.086 247.378 102.72 246.092 101.29C245.209 100.294 244.341 99.266 243.538 98.2056C243.152 97.6915 242.863 97.0809 242.686 96.4543C242.188 94.7352 243.265 93.2571 245.048 93.1767C245.659 93.1446 246.317 93.2249 246.88 93.4499C248.036 93.9158 249.177 94.4139 250.254 95.0565C253.467 96.9524 256.359 99.2821 259.122 101.772C264.987 107.074 270.08 113.067 274.643 119.51C276.683 122.386 278.611 125.358 280.523 128.331C281.23 129.423 281.793 130.612 282.339 131.801C282.853 132.974 283.126 134.179 283.126 135.448Z" fill="white"/>
<path d="M293.184 152.656C293.168 156.415 289.521 158.809 286.051 157.347C284.894 156.849 283.994 156.046 283.319 155.002C282.355 153.54 281.793 151.917 281.616 150.182C281.6 150.037 281.6 149.892 281.6 149.732C281.568 146.036 284.701 144.012 288.011 145.619C289.81 146.486 291.24 147.82 292.317 149.523C292.911 150.471 293.2 151.531 293.184 152.656Z" fill="white"/>
<path d="M234.637 187.392C235.44 187.537 235.89 187.794 236.051 188.533C235.858 189.915 234.316 190.461 233.609 191.73C234.155 192.1 234.701 192.437 235.215 192.807C237.995 194.815 239.136 198.318 238.043 201.483C236.934 204.696 233.753 206.93 230.395 206.817C225.752 206.672 222.298 202.222 223.294 197.691C223.519 196.647 223.824 195.619 224.177 194.622C224.322 194.189 224.627 193.771 224.949 193.449C225.623 192.775 226.282 192.084 227.069 191.57C228.965 190.349 230.909 189.208 232.87 188.083C233.432 187.778 234.075 187.617 234.637 187.392Z" fill="#201F40"/>
<path d="M295.145 188.404C294.245 186.83 294.245 186.83 294.47 185.625C294.984 184.998 295.659 184.886 296.398 185.127C296.96 185.304 297.523 185.512 298.037 185.802C299.579 186.685 301.122 187.601 302.632 188.533C303.515 189.063 304.255 189.706 304.447 190.83C304.544 191.345 304.897 191.795 305.122 192.277C306.456 195.297 306.022 198.093 303.885 200.583C301.812 202.993 298.519 203.909 295.627 202.865C292.51 201.74 290.807 199.41 290.534 196.165C290.309 193.449 291.417 191.184 293.586 189.481C294.084 189.111 294.582 188.79 295.145 188.404Z" fill="#201F40"/>
<path d="M266.272 211.862C265.084 211.862 263.895 211.878 262.722 211.862C262.304 211.862 261.886 211.83 261.501 211.701C260.906 211.492 260.521 211.059 260.488 210.384C260.456 209.709 260.794 209.243 261.388 208.986C261.645 208.857 261.951 208.777 262.24 208.761C264.843 208.632 267.445 208.504 270.048 208.391C270.45 208.375 270.884 208.424 271.269 208.536C272.04 208.761 272.506 209.404 272.474 210.111C272.458 210.85 272.057 211.348 271.398 211.589C270.964 211.749 270.482 211.83 270.016 211.846C268.779 211.878 267.526 211.862 266.289 211.862C266.272 211.846 266.272 211.846 266.272 211.862Z" fill="#201F40"/>
<path d="M142.654 207.91C142.654 217.341 142.654 225.069 142.092 232.797C142.076 233.183 142.027 233.585 142.011 233.97C141.401 242.116 140.565 250.246 138.943 258.263C137.689 264.433 136.147 270.554 133.946 276.467C132.628 280.034 131.038 283.504 129.013 286.733C127.664 288.854 126.154 290.83 124.354 292.582C122.924 293.947 121.366 295.12 119.63 296.084C112.513 300.085 104.865 302.19 96.7031 302.704C82.4841 303.587 68.7791 301.145 55.4276 296.39C46.1892 293.096 37.5935 288.581 29.5601 282.942C22.057 277.704 16.2729 270.956 11.726 263.051C6.69712 254.311 3.51591 244.896 1.76463 234.95C0.141884 225.664 -0.211584 216.297 0.350752 206.882C0.897022 197.852 2.23056 188.919 4.33531 180.114C7.90213 165.172 13.1881 151.082 20.2414 137.891C25.9772 127.094 32.9181 116.859 41.08 107.268C50.2381 96.5029 60.7297 87.2645 72.5548 79.5203C78.3067 75.7285 84.4603 72.8044 91.2565 71.4226C93.2327 71.037 95.2411 70.7157 97.2494 70.6193C99.804 70.4908 102.343 71.0049 104.785 71.7601C111.067 73.6881 116.208 77.287 120.321 82.348C123.519 86.3326 125.688 90.8474 127.471 95.6353C130.443 103.637 132.018 111.975 133.576 120.33C135.247 129.263 136.501 138.276 137.738 147.274C138.477 152.576 139.087 157.894 139.65 163.212C140.276 169.012 140.822 174.812 141.321 180.612C141.674 184.806 141.931 189.031 142.124 193.257C142.381 198.688 142.526 204.15 142.654 207.91Z" fill="#85B7FF"/>
<path d="M142.011 233.97C141.401 242.116 140.565 250.246 138.943 258.263C137.689 264.433 136.147 270.554 133.946 276.467C132.628 280.034 131.038 283.504 129.013 286.733C127.664 288.854 126.153 290.83 124.354 292.582C122.924 293.947 121.366 295.12 119.63 296.084C112.513 300.085 104.865 302.19 96.703 302.704C82.4839 303.587 68.779 301.145 55.4275 296.39C46.1891 293.096 37.5934 288.581 29.56 282.942C22.0568 277.704 16.2728 270.956 11.7259 263.051C6.697 254.311 3.51578 244.896 1.76451 234.95C0.141762 225.664 -0.211707 216.297 0.35063 206.882C0.8969 197.852 2.23044 188.919 4.33519 180.114C7.90201 165.172 13.188 151.082 20.2413 137.891C19.92 143.932 20.1288 149.941 20.6912 155.982C21.8801 168.562 24.8042 180.741 29.1583 192.582C34.6371 207.46 42.1403 221.181 52.0214 233.601C55.4436 237.858 59.1389 241.875 63.1717 245.586C63.6216 245.972 64.0393 246.406 64.4249 246.791C64.3446 247.032 64.3446 247.161 64.2803 247.241C62.7861 249.298 63.2681 252.061 65.0997 254.102C66.61 255.773 68.4576 256.865 70.7713 257.026C71.0123 257.026 71.2533 257.106 71.4782 257.154C71.5425 257.171 71.5907 257.219 71.7192 257.299C71.7835 257.717 71.8638 258.167 71.9602 258.649C72.2815 260.898 73.3098 262.778 74.9004 264.368C76.5071 265.927 78.3387 267.052 80.5077 267.614C84.3798 268.61 88.2358 266.618 89.2962 262.826C89.3766 262.537 89.489 262.264 89.5854 262.023C90.2924 261.766 90.8387 262.087 91.4331 262.264C94.534 263.115 97.6831 263.742 100.913 263.951C112.143 264.706 121.799 261.123 129.881 253.282C133.416 249.876 136.227 245.94 138.541 241.666C139.858 239.16 141.015 236.605 142.011 233.97Z" fill="#629ADD"/>
<path d="M91.2725 258.858C88.5572 258.649 86.6935 257.621 85.2475 255.805C85.0707 255.58 84.9101 255.323 84.7655 255.05C84.0585 253.62 83.9943 252.174 84.8619 250.808C85.7777 249.362 87.1915 248.8 88.8304 248.912C89.5212 248.961 90.2442 249.169 90.8708 249.475C92.831 250.455 94.1163 252.045 94.6947 254.15C95.4017 256.737 93.5379 258.97 91.2725 258.858Z" fill="#629ADD"/>
<path d="M124.868 130.612C124.901 132.557 124.836 134.485 124.258 136.348C123.888 137.521 123.342 138.614 122.555 139.562C119.839 142.839 115.228 143.128 112.127 140.204C110.842 138.999 110.023 137.505 109.46 135.834C108.85 134.019 108.512 132.139 108.368 130.243C108.143 127.399 107.95 124.555 107.854 121.695C107.629 115.542 107.275 109.404 106.231 103.331C105.926 101.58 105.54 99.8286 105.235 98.0773C105.106 97.3221 104.978 96.5509 104.994 95.7797C105.058 93.6589 106.649 92.1165 108.769 92.0201C110.039 91.9719 111.163 92.3897 112.192 93.1127C113.493 94.0285 114.505 95.2335 115.389 96.5509C117.076 99.0574 118.377 101.757 119.39 104.6C122.298 112.827 124.178 121.278 124.852 129.986C124.852 130.195 124.852 130.404 124.868 130.612Z" fill="white"/>
<path d="M106.327 192.052C103.628 192.181 100.64 193.418 98.1655 195.747C95.5466 198.222 94.5022 201.29 95.7394 204.777C96.9605 208.247 99.6115 210.143 103.21 210.593C106.52 211.011 109.412 209.902 111.87 207.685C113.557 206.159 114.779 204.295 115.405 202.094C116.498 198.286 114.698 194.462 111.067 192.855C109.83 192.293 108.529 192.036 106.327 192.052Z" fill="#F490F4"/>
<path d="M17.0442 192.052C14.329 192.052 12.401 192.566 10.7621 193.867C8.43246 195.715 7.45239 198.157 7.88619 201.113C8.51279 205.355 12.899 210.994 19.6792 210.689C24.0494 210.48 27.6644 207.251 28.1785 203.057C28.4838 200.551 27.7126 198.334 26.0416 196.502C23.487 193.642 20.2094 192.228 17.0442 192.052Z" fill="#F490F4"/>
<path d="M28.178 187.151C32.4196 187.167 36.0347 190.815 35.9222 195.056C35.8097 199.089 32.7088 202.608 28.2423 202.543C24.0488 202.479 20.5624 198.928 20.5784 194.735C20.5624 190.59 24.0488 187.135 28.178 187.151Z" fill="#201F40"/>
<path d="M95.626 190.718C99.8677 190.75 103.467 194.414 103.322 198.655C103.193 202.624 100.173 206.078 95.7867 206.11C91.5451 206.126 87.9461 202.527 87.9782 198.27C88.0104 194.124 91.4969 190.686 95.626 190.718Z" fill="#201F40"/>
<path d="M59.5729 207.765C60.8743 207.829 62.1757 207.877 63.4771 207.974C64.0073 208.006 64.5375 208.102 65.0356 208.279C65.6301 208.472 65.9675 209.05 65.9353 209.661C65.9193 210.255 65.6301 210.705 65.0999 210.914C64.6661 211.075 64.1841 211.203 63.7181 211.203C61.4688 211.235 59.2194 211.219 56.9701 211.203C56.3756 211.187 55.7811 211.091 55.2188 210.946C54.4315 210.753 53.9656 210.143 53.9495 209.42C53.9335 208.649 54.4476 207.99 55.3152 207.813C55.7811 207.717 56.2631 207.701 56.7291 207.685C57.677 207.669 58.625 207.685 59.5729 207.685C59.5729 207.701 59.5729 207.733 59.5729 207.765Z" fill="#201F40"/>
<path d="M89.007 207.379C89.2962 206.93 89.7139 206.785 90.228 206.849C91.0957 206.962 93.9716 208.07 95.0641 208.745C95.1123 208.906 95.2087 209.131 95.2248 209.356C95.2409 209.516 95.1445 209.693 95.1123 209.87C94.9677 209.982 94.8553 210.143 94.6946 210.191C92.9273 210.834 90.6779 210.304 89.4568 208.986C89.0391 208.536 88.7338 208.038 89.007 207.379Z" fill="#201F40"/>
<path d="M31.9378 205.452C31.2951 204.488 31.279 204.086 31.986 203.507C33.2231 202.479 34.653 201.804 36.2758 201.371C36.565 201.676 36.9345 201.885 36.9988 202.174C37.0791 202.543 36.9988 203.009 36.806 203.347C35.8741 204.953 33.9782 205.757 31.9378 205.452Z" fill="#201F40"/>
</svg>
