<svg width="418" height="412" viewBox="0 0 418 412" fill="none" xmlns="http://www.w3.org/2000/svg">
<path d="M245.446 328.031C244.156 328.354 242.866 328.677 241.898 329C240.285 332.551 237.06 348.693 235.77 360.315C233.512 377.425 232.222 396.472 232.867 400.669C233.512 400.669 234.157 400.992 234.802 400.992C238.028 401.638 239.963 403.897 239.64 406.803C239.318 409.386 237.06 411.323 233.835 411C233.19 411 232.222 410.677 231.577 410.677C229.965 410.354 228.674 409.709 227.384 409.386C227.062 409.386 226.739 409.386 226.739 409.063C225.772 408.74 224.804 408.094 224.481 406.803C224.159 405.512 225.127 404.543 226.094 403.898C226.739 403.575 227.384 402.929 228.352 402.606C228.352 401.961 228.352 400.992 228.029 400.346C225.127 384.527 221.579 369.031 216.741 353.858C214.483 347.401 212.225 340.945 209.968 334.165C209.645 333.197 209.323 332.551 209 331.905C208.032 331.26 207.065 331.26 206.097 331.26C192.228 330.291 179.005 327.386 166.426 322.22C159.008 319.315 151.912 315.764 145.139 311.567C144.171 310.921 143.204 310.598 142.559 309.953C136.431 312.212 109.66 332.551 104.5 338.685C104.823 339.331 105.145 339.976 105.468 340.622C106.113 341.59 106.435 342.559 106.435 343.527C106.435 345.464 104.823 346.756 102.887 345.787C102.242 345.464 101.92 345.142 101.275 344.819C99.3395 343.527 97.4043 342.559 95.1466 341.268C94.5015 340.945 93.8565 340.622 93.534 339.976C91.9213 338.362 91.2762 336.102 92.2438 334.488C93.2114 332.551 95.1466 331.905 97.4043 332.551C98.0494 332.874 98.6944 332.874 99.3395 333.197C100.307 332.551 100.63 331.583 100.952 330.937C104.5 323.512 108.37 316.409 111.918 308.984C114.498 304.142 116.756 298.976 119.014 294.134C119.336 293.488 119.659 292.842 119.981 291.874C119.336 290.905 118.691 290.26 117.724 289.614C106.113 277.346 97.0818 263.464 90.3086 247.968C87.4059 240.543 84.8256 233.118 83.213 225.37C83.213 224.724 82.8904 224.079 82.5679 223.433C82.5679 223.11 82.2454 223.11 82.2454 222.464C81.2778 222.142 80.3102 221.819 79.0201 221.496C71.6019 220.205 64.1836 218.59 56.7654 217.299C42.5741 215.039 28.3827 213.748 13.8688 213.425C12.9012 213.425 11.9336 213.102 10.9661 213.748C10.9661 214.394 10.6435 215.039 10.321 215.685C9.3534 218.59 6.45062 219.559 3.87037 217.945C2.90278 217.299 1.93519 216.331 1.61265 215.362C0.645062 213.748 0 211.488 0 209.551C0 207.937 0.322531 206.323 1.61265 205.677C3.22531 204.709 4.83796 205.677 6.12809 206.646C6.77315 207.291 7.41821 207.937 8.3858 208.583C11.9336 208.583 29.0278 205.031 41.929 201.48C54.5077 198.252 74.5046 191.472 79.3426 188.89C79.9877 187.921 79.9877 186.953 79.9877 185.984C81.9228 160.48 90.6312 137.559 105.145 116.575C105.468 115.929 106.113 115.283 106.435 114.315C98.0494 101.401 89.6636 88.4881 80.3102 76.5432C79.9877 76.2204 79.3426 75.5747 79.0201 75.2519C76.7623 75.8975 74.8272 78.4802 72.2469 76.866C71.6019 75.8975 71.6019 75.2519 71.9244 74.6062C72.2469 73.9605 72.5694 73.3148 72.892 72.6692C74.1821 70.7322 75.1497 68.4723 76.4398 66.5353C76.7624 65.8896 77.4074 64.9212 78.0525 64.2755C79.0201 63.307 79.9877 62.6613 81.2778 62.3385C83.858 61.6928 86.4383 63.6298 86.4383 66.2125C86.4383 67.181 86.1157 68.1495 85.7932 69.118C85.4707 69.7637 85.1481 70.4093 84.8256 71.055C84.8256 72.0235 85.7932 72.3463 86.4383 72.6692C91.5988 75.8975 96.7593 79.1259 101.92 82.0314C108.693 85.9054 115.466 89.1337 122.239 92.3621C123.207 92.6849 124.497 93.3306 125.465 93.6534C126.11 93.0078 126.755 92.6849 127.722 92.0393C136.431 84.6141 146.106 78.4802 156.105 72.992C166.748 67.5038 178.36 64.2755 189.971 62.0156C192.228 61.6928 194.486 61.37 196.421 61.0471C197.389 60.0786 197.711 59.1101 198.034 58.1416C200.937 48.4566 203.194 38.7715 205.13 29.0865C205.775 25.2125 206.42 21.6613 207.065 17.7873C207.065 17.1416 207.065 16.496 207.065 15.5274C206.42 15.2046 205.452 15.2046 204.807 14.8818C203.84 14.5589 203.194 14.2361 202.549 13.9133C199.969 11.9763 200.292 8.42509 203.194 6.81091C205.13 5.84241 207.065 5.84241 209 6.48808C211.258 7.13375 213.515 7.45658 215.773 8.10225C216.418 8.10225 217.063 8.42509 217.708 8.74792C218.353 9.07076 218.998 9.39359 218.998 10.3621C218.998 11.6534 218.353 12.2991 217.386 12.9448C216.418 13.2676 215.451 13.5904 214.806 14.2361C214.16 13.5904 213.515 13.9133 212.87 14.2361C212.87 14.8818 212.87 15.5274 213.193 16.1731C215.773 28.118 218.676 40.0629 221.901 52.0078C222.546 53.9448 222.869 55.8818 223.514 57.8188C223.836 58.7873 224.159 59.433 224.159 60.4015C225.127 60.7243 225.772 60.7243 226.739 60.7243C244.478 62.6613 261.25 67.8267 277.377 76.2204C283.505 79.4487 289.633 83.3227 295.116 87.5196C295.761 87.8424 296.406 88.4881 297.051 88.8109C297.051 88.8109 297.373 88.8109 297.696 89.1337C298.664 89.1337 299.631 88.4881 300.599 88.1652C309.307 83.6456 317.693 78.803 326.079 73.3148C337.367 66.2125 348.011 58.1416 358.332 50.0708C358.977 49.7479 359.299 49.1022 359.944 48.4566C359.944 47.8109 359.944 47.1652 359.944 46.5196C359.944 46.1967 359.944 45.5511 359.944 45.2282C360.59 41.9999 362.847 41.0314 365.427 42.9684C367.363 44.5826 368.653 46.5196 369.62 48.7794C369.943 50.0708 370.265 51.0393 369.943 52.3306C369.298 54.9133 366.718 56.5274 364.137 55.2361C363.492 54.9133 362.525 54.2676 361.557 53.9448C361.235 54.2676 360.59 54.5904 360.267 55.2361C346.076 72.6692 333.174 91.0707 322.208 111.086C321.886 111.732 321.563 112.378 321.241 113.024C321.241 113.346 321.241 113.669 320.918 113.992C321.563 114.638 321.886 115.606 322.531 116.575C331.884 129.488 338.657 143.37 343.173 158.543C345.431 166.614 347.043 175.008 348.011 183.724C348.011 185.016 348.333 186.307 348.333 187.921C351.236 189.212 354.139 189.858 357.364 190.504C360.267 191.472 363.17 192.118 366.395 193.087C369.62 194.055 372.523 194.701 375.748 195.669C378.651 196.315 381.877 197.283 384.779 197.929C387.682 198.575 390.907 199.543 393.81 199.866C394.133 199.22 394.455 198.575 394.778 197.929C395.745 195.669 398.003 194.378 400.261 195.023C402.519 195.669 403.809 197.929 403.486 200.189C403.486 200.835 403.164 201.48 403.164 202.126C402.841 203.74 402.519 205.677 402.196 207.291C402.196 207.937 401.873 208.905 401.873 209.551C401.228 211.811 398.971 212.457 397.358 210.52C396.713 209.874 396.39 208.905 396.068 208.26C395.745 207.614 395.423 206.646 395.1 206C392.843 205.677 390.585 206.323 388.327 206.646C372.846 208.905 352.849 213.425 348.011 215.685C348.011 216.331 347.688 216.976 347.366 217.945C343.818 240.22 335.11 260.236 321.886 277.992C321.563 278.638 320.918 279.283 320.596 279.929C323.821 289.937 353.494 335.457 360.912 341.913C361.557 341.913 362.202 341.59 362.847 341.268C363.492 341.268 364.137 340.945 364.782 340.945C366.395 340.945 367.685 342.236 367.363 343.85C367.363 344.173 367.363 344.496 367.363 344.496C366.073 346.756 365.105 349.338 363.815 351.598C363.492 352.244 362.525 352.89 361.557 353.535C359.622 354.504 357.687 354.504 356.074 353.212C354.461 351.921 353.816 349.661 354.784 347.724C355.106 346.756 355.752 345.787 356.397 344.819C356.074 344.496 355.752 343.85 355.106 343.527C337.69 329.323 318.983 316.086 299.309 305.433C298.341 305.11 297.696 304.464 296.728 304.142C295.438 304.142 294.793 305.11 293.826 305.756C287.375 310.275 280.924 314.472 273.829 317.701C273.184 318.023 265.443 322.866 245.446 328.031Z" fill="#1B1B96"/>
<path d="M417.677 111.732C417.355 113.992 415.42 114.961 413.162 113.669C412.517 113.346 411.872 112.701 411.227 112.378C410.582 112.055 409.937 111.409 409.614 110.764C401.873 113.346 358.977 143.37 350.913 152.087C353.494 160.803 355.751 169.842 356.719 178.882C357.687 188.244 358.009 197.606 357.364 206.646C357.364 208.583 357.042 210.52 356.719 212.457C355.751 219.882 354.461 226.984 352.526 234.087C352.849 234.409 353.494 235.055 353.816 235.378C354.139 235.701 354.461 236.024 354.784 236.024C360.912 241.189 367.04 246.031 373.491 250.551C379.941 255.394 386.392 260.236 392.52 265.402C392.842 265.724 393.165 266.047 393.81 266.37C394.455 265.724 395.1 265.402 395.423 264.756C396.068 264.11 397.035 263.465 397.68 263.142C399.938 262.173 401.873 263.465 402.196 265.724C402.196 266.37 402.196 266.693 402.196 267.339C401.551 270.244 401.228 272.827 400.583 275.732C400.261 276.701 399.938 277.669 399.293 278.315C398.003 280.252 395.423 281.22 393.488 280.575C391.23 279.929 389.94 277.992 389.94 275.409C389.94 274.764 389.94 274.118 390.262 273.472C390.262 272.827 390.585 272.504 390.585 271.858C389.94 271.535 389.617 271.213 388.972 270.89C375.426 266.693 361.88 262.496 348.011 258.299C347.366 257.976 346.398 257.976 345.753 257.654C345.108 257.654 344.463 257.331 343.818 257.331C342.85 258.299 342.528 259.268 341.883 260.236C335.755 272.181 328.014 283.157 319.305 292.842C310.92 301.882 301.566 309.953 290.923 316.409C290.278 316.732 289.955 317.055 289.31 317.378C289.31 318.024 289.31 318.669 289.31 319.315C291.245 332.874 293.826 346.433 297.373 359.669C299.631 368.063 302.211 376.134 304.469 384.528C304.792 385.173 305.114 386.142 305.437 386.787C306.082 386.787 306.727 387.11 307.372 387.11C308.984 387.11 310.275 387.433 311.565 388.079C314.467 389.693 315.113 392.276 313.177 395.181C310.597 399.055 307.049 400.992 302.211 400.346C298.341 400.024 296.406 397.118 298.018 393.567C298.663 392.276 299.309 390.984 299.954 389.693C297.051 381.299 267.055 338.685 258.67 331.583C249.961 334.488 240.93 336.425 231.577 337.717C222.224 338.685 213.193 339.008 203.839 338.362C194.486 337.716 185.455 335.779 176.747 333.52C175.457 334.488 175.457 335.457 174.812 336.425C170.619 345.465 166.748 354.827 162.555 363.866C160.943 367.74 159.008 371.291 157.395 375.165C157.072 375.811 156.75 376.779 156.427 377.748C157.072 378.071 157.718 378.716 158.363 379.039C159.33 379.685 160.298 380.331 160.943 381.622C162.878 384.85 161.265 388.402 157.718 389.047C156.105 389.37 154.492 389.047 153.202 388.402C150.622 387.11 148.042 385.496 145.784 383.882C145.461 383.559 145.139 383.236 144.816 382.913C143.204 380.976 143.849 378.394 146.106 377.425C147.074 377.102 148.364 377.102 149.332 376.779C149.977 376.779 150.299 376.457 150.944 376.457C150.944 375.488 151.267 374.842 151.267 374.197C151.267 363.866 152.557 353.213 153.202 342.882C153.525 337.716 153.847 332.551 154.17 327.386C154.17 326.74 154.17 325.772 154.17 325.126C149.332 322.22 144.171 319.638 139.656 316.732C134.818 313.827 130.302 310.598 126.109 307.047C121.917 303.496 117.724 299.622 113.853 295.748C109.983 291.874 106.113 287.677 102.887 283.157C99.662 278.638 96.4367 274.118 93.2114 269.276C92.5663 268.953 91.5987 269.276 90.6311 269.276C75.1496 271.535 59.6682 275.087 44.8317 279.283C39.0262 280.898 33.2206 282.835 27.4151 284.449C26.4475 284.772 25.4799 285.094 24.5123 285.417C24.5123 286.386 24.5123 287.031 24.5123 288C24.5123 288.646 24.5123 289.614 24.1898 290.26C24.1898 291.551 22.5771 292.52 20.6419 291.551C19.9969 291.228 19.0293 290.905 18.7067 290.26C17.0941 288.323 15.4814 286.063 13.8688 284.126C13.2237 282.835 12.9012 281.543 12.9012 280.252C12.9012 277.992 13.8688 276.378 15.804 275.732C17.7391 274.764 19.6743 275.087 21.6095 276.701C22.2546 277.024 22.5771 277.669 23.2222 278.638C23.5447 278.961 23.8672 279.283 23.8672 279.606C32.253 276.701 72.8919 247.968 80.6327 239.575C80.6327 238.929 80.6327 238.606 80.3101 237.961C75.1496 221.173 73.537 204.063 74.5046 186.63C74.8271 180.173 75.7947 174.039 77.0848 167.583C77.4073 166.614 77.4073 165.968 77.7299 165C77.0848 164.354 76.7623 164.031 76.1172 163.386C64.5061 154.669 52.5725 146.921 39.9938 139.819C39.3487 139.496 39.0262 139.496 38.0586 139.173C37.7361 139.819 37.091 140.465 36.7685 141.11C36.1234 142.402 35.1558 143.37 34.1882 144.016C31.9305 145.307 29.6728 145.63 27.4151 144.339C25.8024 143.047 25.1574 140.787 25.4799 138.205C25.4799 136.913 26.1249 135.622 26.4475 134.654C28.0601 131.425 29.6728 128.52 31.2854 125.614C32.253 123.677 33.8657 123.677 35.4783 124.968C36.7685 125.937 37.4135 127.551 38.0586 128.842C38.3811 129.811 38.7037 130.779 39.0262 131.748C44.1867 132.716 49.6697 133.362 55.1527 134.008C60.6357 134.654 66.1188 135.299 71.6018 135.622C77.0848 135.945 82.2453 136.59 87.7283 136.913C89.341 134.008 90.6311 131.102 92.2438 128.197C93.8564 125.614 95.4691 122.709 97.0817 120.126C98.6944 117.543 100.63 114.961 102.565 112.378C104.5 109.795 106.435 107.213 108.37 104.953C109.66 103.339 111.273 101.724 112.563 100.11C113.208 99.4645 113.853 98.496 114.498 97.8503C116.756 95.5905 119.014 93.3307 121.272 91.0708C123.529 88.811 126.11 86.874 128.69 84.937C131.27 83 133.528 81.063 136.108 79.4488C138.688 77.5118 141.268 75.8976 144.171 73.9606C144.171 72.9921 144.171 72.0236 143.849 71.0551C141.591 55.559 138.043 40.7086 133.85 25.5354C132.883 22.3071 131.915 19.0787 130.947 15.8504C130.625 15.2047 130.625 14.8819 130.302 14.2362C129.657 14.2362 129.012 14.2362 128.045 14.2362C126.755 14.2362 125.464 14.2362 124.174 13.9134C122.884 13.5905 121.917 12.9448 121.594 11.3307C121.594 10.0393 122.239 8.748 123.207 8.10233C126.11 5.51965 129.335 3.25981 132.883 1.64563C133.85 1.3228 135.14 0.999964 136.108 0.67713C139.978 0.0314603 142.236 3.25981 140.946 6.81099C140.623 8.748 139.656 9.7165 138.688 10.685C138.043 11.0078 137.721 11.6535 137.076 11.9763C139.333 18.7559 166.103 56.2047 172.231 61.37C173.844 61.0472 175.457 60.7244 177.069 60.0787C189.971 56.2047 203.517 54.5905 217.063 54.5905C229.319 54.5905 241.253 56.2047 253.187 59.433C254.154 59.7559 255.122 60.0787 256.089 60.0787C256.412 60.0787 256.412 60.0787 256.412 60.0787C256.734 60.0787 256.734 60.0787 256.734 60.0787H257.057C257.702 59.433 258.025 58.7874 258.67 57.8189C267.378 45.5511 276.409 33.9291 284.472 21.0157C284.472 20.6929 284.795 20.37 284.795 20.0472C284.472 19.4015 283.827 18.433 283.182 17.7874C282.214 16.496 281.569 14.8819 281.892 12.9448C281.892 10.685 283.182 9.7165 285.117 10.3622C288.342 11.0078 291.568 11.6535 294.793 12.622C296.083 12.9448 297.696 13.5905 298.986 14.559C301.244 16.1732 302.211 18.1102 301.566 20.6929C300.921 22.9527 298.986 24.8897 296.406 25.2126C295.438 25.2126 294.148 25.2126 293.18 25.2126C292.535 25.2126 291.89 24.8897 291.245 24.8897C290.6 25.2126 290.278 26.1811 290.278 26.8267C288.988 33.2834 287.697 39.7401 286.73 46.5196C285.762 53.622 285.117 60.4015 284.15 67.5039C284.15 69.1181 283.827 70.4094 284.15 72.0236C286.73 73.6378 289.31 75.2519 292.213 76.8661C294.793 78.4803 297.373 80.4173 299.954 82.0315C302.534 83.9685 304.792 85.5826 307.372 87.8425C309.952 89.7795 312.21 92.0393 314.467 94.2992C316.725 96.559 318.983 98.8189 320.918 101.079C323.176 103.339 325.111 105.598 327.046 108.181C328.981 110.764 330.917 113.024 332.529 115.606C334.464 118.189 335.755 121.094 338.012 123.354C338.98 123.354 339.947 123.354 340.915 123.031C354.461 121.094 368.008 118.189 381.231 114.638C388.972 112.378 396.39 110.118 404.131 107.858C404.776 107.535 405.744 107.213 406.389 106.89C406.389 106.244 406.389 105.921 406.066 105.276C406.066 104.63 405.744 104.307 405.744 103.661C405.744 101.079 406.711 99.1417 408.969 98.1732C411.227 97.2047 413.484 97.8503 415.097 99.7874C415.742 100.433 416.387 101.402 416.71 102.693C417.355 104.953 417.677 107.535 418 110.118C418 110.118 418 111.087 417.677 111.732Z" fill="#6671FF"/>
<path d="M357.364 220.528C357.042 221.173 356.719 221.496 356.719 221.819C356.397 223.11 356.074 224.402 355.751 226.016L355.106 229.244C355.106 229.89 354.784 230.535 354.461 231.504C354.139 232.795 353.816 234.087 353.816 235.378C353.816 236.024 353.816 236.346 353.816 236.669C351.881 243.772 349.301 250.551 346.398 257.008L346.076 257.331H345.753C345.108 257.331 344.463 257.008 343.818 257.008C342.85 257.976 342.528 258.945 341.883 259.913C335.755 271.858 328.014 282.835 319.305 292.52C310.92 301.559 301.566 309.63 290.923 316.087C290.278 316.409 289.955 316.732 289.31 317.055C289.31 317.701 289.31 318.346 289.31 318.992C291.245 332.551 293.826 346.11 297.373 359.346C299.631 367.74 302.211 375.811 304.469 384.205C304.792 384.85 305.114 385.819 305.437 386.465C306.082 386.465 306.727 386.787 307.372 386.787C308.984 386.787 310.275 387.11 311.565 387.756C314.468 389.37 315.113 391.953 313.177 394.858C310.597 398.732 307.049 400.669 302.211 400.024C298.341 399.701 296.406 396.795 298.018 393.244C298.664 391.953 299.309 390.661 299.954 389.37C297.051 380.976 267.055 338.362 258.67 331.26C249.961 334.165 240.93 336.102 231.577 337.394C222.224 338.362 213.193 338.685 203.839 338.039C194.486 337.394 185.455 335.457 176.747 333.197C175.457 334.165 175.457 335.134 174.812 336.102C170.619 345.142 166.748 354.504 162.555 363.543C160.943 367.417 159.008 370.968 157.395 374.842C157.072 375.488 156.75 376.457 156.427 377.425C157.072 377.748 157.718 378.394 158.363 378.717C159.33 379.362 160.298 380.008 160.943 381.299C162.878 384.528 161.265 388.079 157.718 388.724C156.105 389.047 154.492 388.724 153.202 388.079C150.622 386.787 148.042 385.173 145.784 383.559C145.461 383.236 145.139 382.913 144.816 382.591C143.204 380.654 143.849 378.071 146.106 377.102C147.074 376.78 148.364 376.78 149.332 376.457C149.977 376.457 150.299 376.134 150.944 376.134C150.944 375.165 151.267 374.52 151.267 373.874C151.267 363.543 152.557 352.89 153.202 342.559C153.525 337.394 153.847 332.228 154.17 327.063C154.17 326.417 154.17 325.449 154.17 324.803C149.332 321.898 144.171 319.315 139.656 316.409C134.818 313.504 130.302 310.276 126.11 306.724C121.917 303.173 117.724 299.299 113.853 295.425C109.983 291.551 106.113 287.354 102.887 282.835C99.662 278.315 96.4367 273.795 93.2114 268.953C92.5663 268.63 91.5987 268.953 90.6311 268.953C75.1496 271.213 59.6682 274.764 44.8317 278.961C39.0262 280.575 33.2206 282.512 27.4151 284.126C26.4475 284.449 25.4799 284.772 24.5123 285.094C24.5123 286.063 24.5123 286.709 24.5123 287.677C24.5123 288.323 24.5123 289.291 24.1898 289.937C24.1898 291.551 22.5771 292.52 20.6419 291.551C19.9969 291.228 19.0293 290.905 18.7067 290.26C17.0941 288.323 15.4814 286.063 13.8688 284.126C13.2237 282.835 12.9012 281.543 12.9012 280.252C12.9012 277.992 13.8688 276.378 15.804 275.732C17.7391 274.764 19.6743 275.087 21.6095 276.701C22.2546 277.024 22.5771 277.669 23.2222 278.638C23.5447 278.961 23.8672 279.283 23.8672 279.606C32.253 276.701 72.8919 247.968 80.6327 239.575C80.6327 238.929 80.6327 238.606 80.3101 237.961C75.1496 221.173 73.537 204.063 74.5046 186.63C74.8271 180.173 75.7947 174.039 77.0848 167.583C77.4073 166.614 77.4074 165.968 77.7299 165C77.0848 164.354 76.7623 164.031 76.1172 163.386C64.5061 154.669 52.5725 146.921 39.9938 139.819C39.3487 139.496 39.0262 139.496 38.0586 139.173C37.7361 139.819 37.091 140.465 36.7685 141.11C36.1234 142.402 35.1558 143.37 34.1882 144.016C31.9305 145.307 29.6728 145.63 27.4151 144.339C25.8024 143.047 25.1574 140.787 25.4799 138.205C25.4799 136.913 26.1249 135.622 26.4475 134.654C28.0601 131.425 29.6728 128.52 31.2854 125.614C32.253 123.677 33.8657 123.677 35.4783 124.968C36.7685 125.937 37.4135 127.551 38.0586 128.843C38.3811 129.811 38.7037 130.78 39.0262 131.748C44.1867 132.717 49.6697 133.362 55.1527 134.008C60.6357 134.654 66.1188 135.299 71.6018 135.622C77.0848 135.945 82.2453 136.591 87.7283 136.913C89.341 134.008 90.6311 131.102 92.2438 128.197C93.8564 125.614 95.4691 122.709 97.0817 120.126C98.6944 117.543 100.63 114.961 102.565 112.378C104.5 109.795 106.435 107.213 108.37 104.953C109.66 103.339 111.273 101.724 112.563 100.11C110.951 103.661 109.66 107.535 109.338 108.504C109.338 109.15 109.015 109.795 108.693 110.441L108.37 111.732C108.048 112.701 107.725 113.669 107.403 114.961C107.08 115.929 106.758 116.898 106.758 117.866C106.435 118.835 106.435 119.803 106.113 121.094C105.79 122.386 105.79 123.354 105.468 124.323C105.145 125.291 105.145 126.26 104.822 127.551C104.822 128.52 104.5 129.488 104.5 130.78C104.5 131.748 104.177 133.039 104.177 134.008C104.177 134.976 104.177 135.622 103.855 136.591V137.882C103.855 138.85 103.855 139.496 103.532 140.465C103.532 141.433 103.532 142.402 103.532 143.693C103.532 144.984 103.532 145.953 103.532 147.244C103.532 148.213 103.532 149.504 103.532 150.472C103.532 151.441 103.532 152.732 103.532 153.701C103.532 154.669 103.532 155.961 103.532 156.929C103.532 157.898 103.855 159.189 103.855 160.48C103.855 161.449 104.177 162.417 104.177 163.709C104.177 164.677 104.5 165.968 104.5 166.937C104.822 167.906 104.822 169.197 105.145 170.165C105.145 171.134 105.468 172.102 105.79 173.394C106.113 174.362 106.113 175.331 106.435 176.622C106.758 177.591 106.758 178.559 107.08 179.85C107.403 180.819 107.725 182.11 108.048 183.079C108.37 184.047 108.693 185.016 109.015 185.984C109.338 186.953 109.66 188.244 109.983 189.213C110.305 190.181 110.628 191.472 110.951 192.441C111.273 193.409 111.596 194.378 111.918 195.346C112.241 196.315 112.563 197.283 112.886 198.252C113.208 199.22 113.853 200.189 114.176 201.157C114.498 202.126 115.143 203.094 115.466 204.386C115.789 205.354 116.434 206.323 116.756 207.291C117.079 208.26 117.724 209.228 118.046 210.197C118.691 211.165 119.014 212.134 119.659 213.102C120.304 214.071 120.626 215.039 121.272 216.008C121.917 216.976 122.239 217.945 122.884 218.591C123.529 219.559 123.852 220.528 124.497 221.173C125.142 222.142 125.787 223.11 126.432 224.079C127.077 225.047 127.722 225.693 128.045 226.661C128.69 227.63 129.335 228.276 129.98 229.244C130.625 230.213 131.27 230.858 131.915 231.827C132.56 232.795 133.205 233.764 134.173 234.409C134.818 235.378 135.463 236.024 136.108 236.992C136.753 237.961 137.398 238.606 138.043 239.252C138.688 240.22 139.656 240.866 140.301 241.835C140.946 242.48 141.914 243.449 142.559 244.094C143.204 244.74 144.171 245.709 144.816 246.354C145.461 247 146.429 247.968 147.074 248.614L152.235 253.457V254.102C152.235 254.748 152.235 255.071 152.235 255.717C151.589 257.654 151.912 259.268 153.525 261.205C155.137 263.465 157.395 264.756 159.653 265.079C159.975 265.079 160.298 265.079 160.62 265.402L161.91 265.724L162.555 268.63C163.846 274.118 167.071 277.346 172.231 278.961C174.167 279.606 175.779 279.606 177.714 278.961C179.327 278.315 180.617 277.346 181.585 276.055C181.907 275.732 181.907 275.409 182.23 274.764L183.843 272.181L185.778 272.827C186.423 272.827 186.745 273.15 187.39 273.472C195.454 276.701 203.517 279.283 211.58 280.898C211.903 280.898 212.548 281.22 212.87 281.22L214.483 281.866V283.48C214.483 284.126 214.483 284.449 214.483 285.094C214.16 287.677 215.128 290.26 217.386 292.197C218.031 292.842 218.676 293.488 218.998 293.811C224.159 297.362 229.642 298.008 235.447 296.394C236.415 296.071 237.383 295.425 238.673 294.779C240.93 293.165 242.221 290.905 242.543 288L242.866 284.772L243.511 284.449C244.801 283.803 245.768 283.803 246.736 283.803H247.381C263.83 282.835 279.312 278.961 293.826 272.504C318.338 261.528 338.012 244.417 352.526 222.142C352.849 221.496 355.106 217.945 357.042 213.425C357.042 213.425 357.042 213.425 357.042 213.102L357.687 211.488L359.299 212.457C360.912 212.134 360.267 214.071 357.364 220.528Z" fill="#3A3ACC"/>
<path d="M213.193 267.339C209.968 267.016 206.743 266.047 204.162 263.787C201.905 261.527 200.615 258.945 200.615 255.716C200.937 252.165 203.195 249.26 206.42 248.291C208.355 247.646 210.29 247.646 212.226 248.291C214.806 248.937 217.386 249.905 219.321 251.842C219.966 252.488 220.611 253.134 221.257 254.102C224.159 258.299 222.869 263.787 218.031 266.047C216.741 267.016 214.806 267.339 213.193 267.339Z" fill="#3A3ACC"/>
<path d="M175.134 235.378C170.296 235.378 166.103 231.827 165.136 226.984C164.168 221.173 169.329 216.331 175.134 218.268C178.359 219.236 180.94 221.496 182.875 224.401C183.843 225.693 184.165 227.307 184.165 228.921C184.165 231.504 182.552 233.764 179.972 234.732C178.359 235.055 176.747 235.055 175.134 235.378Z" fill="#3A3ACC"/>
<path d="M149.977 233.441C149.977 229.567 153.847 226.661 157.395 228.276C159.008 228.921 160.62 229.89 161.588 231.181C163.201 232.795 163.846 234.732 162.878 236.992C161.91 239.252 160.298 240.221 158.04 240.543C154.17 241.189 149.977 237.638 149.977 233.441Z" fill="#3A3ACC"/>
<path d="M155.137 109.472C159.33 109.795 164.168 111.732 168.361 115.283C172.554 119.157 174.166 124.323 172.231 129.811C170.296 135.299 166.103 138.528 160.297 139.173C155.137 139.819 150.299 138.205 146.429 134.331C143.848 131.748 141.913 128.842 140.623 125.291C139.01 119.157 141.913 113.024 147.719 110.441C149.654 109.795 151.589 109.472 155.137 109.472Z" fill="#E8A9F7"/>
<path d="M298.34 109.472C302.533 109.472 305.758 110.441 308.339 112.378C312.209 115.283 313.499 119.157 312.854 124C311.886 130.779 304.791 139.819 293.825 139.496C286.729 139.173 280.924 134.008 280.278 127.228C279.633 123.354 280.924 119.803 283.826 116.575C288.019 112.055 293.502 109.795 298.34 109.472Z" fill="#E8A9F7"/>
<path d="M322.532 173.071C322.532 170.165 322.532 167.582 322.532 164.677C322.532 163.708 322.532 162.74 322.532 161.771C322.854 158.866 325.434 157.252 328.337 158.22C329.305 158.543 330.595 159.189 331.24 159.834C332.53 161.126 333.82 162.094 334.788 163.708C338.013 167.905 340.271 172.425 341.883 177.59C343.173 181.142 343.496 185.016 342.851 188.89C342.528 190.827 341.883 192.441 340.916 194.055C337.69 199.22 331.24 200.189 326.724 195.669C325.434 194.378 324.144 192.441 323.499 190.504C322.532 187.598 321.886 185.016 321.886 181.787C322.532 178.882 322.532 175.976 322.532 173.071Z" fill="white"/>
<path d="M303.824 200.512C304.147 198.897 304.47 197.283 304.792 195.346C305.115 194.378 305.437 193.732 306.082 192.764C308.017 190.181 310.92 189.212 313.823 190.827C316.403 192.118 318.661 193.732 320.274 195.669C322.209 197.929 322.854 200.512 322.531 203.417C322.209 206.968 319.306 210.197 316.081 210.842C312.533 211.811 308.662 210.197 306.082 207.291C304.47 205.354 304.147 202.771 303.824 200.512Z" fill="white"/>
<path d="M165.458 107.535C164.813 106.567 164.491 105.598 163.845 104.63C163.2 103.661 162.878 102.37 162.878 101.079C162.878 98.8189 164.491 97.2048 166.748 97.5276C167.716 97.5276 168.361 97.8504 169.328 98.4961C174.489 102.047 179.004 106.244 181.907 112.055C185.455 118.512 181.585 126.583 174.489 128.197C169.006 129.488 164.491 126.906 162.233 123.354C159.653 119.158 159.975 113.669 163.2 109.795C164.168 109.15 164.813 108.504 165.458 107.535Z" fill="#201F40"/>
<path d="M286.73 97.5275C288.665 97.2047 289.31 99.1417 289.31 100.756C289.31 101.724 288.987 102.37 288.987 103.339C288.665 104.307 288.342 105.276 288.02 106.244C288.342 107.213 288.987 107.535 289.633 107.858C292.213 109.795 293.825 112.055 294.47 115.283C295.761 121.74 290.923 128.197 284.472 128.52C276.086 129.165 270.926 121.417 272.538 114.638C273.506 110.764 274.796 107.535 277.699 104.953C279.312 103.016 284.149 98.496 286.73 97.5275Z" fill="#201F40"/>
<path d="M250.929 140.465C250.929 145.307 249.316 149.504 246.414 153.055C246.091 153.378 246.091 153.378 245.769 153.701C243.511 156.283 240.608 158.22 237.383 159.512C233.835 160.803 230.287 161.449 226.094 161.449C219.966 161.126 213.838 158.866 209 154.669C208.032 154.024 207.387 153.055 206.742 152.409C205.13 150.472 203.84 147.89 202.872 145.307C200.614 138.205 205.775 132.071 211.903 131.425C214.161 131.102 216.418 131.748 218.353 132.716C219.644 133.362 220.934 134.008 222.224 134.654C225.772 136.591 229.319 136.591 232.867 134.654C234.157 134.008 235.448 133.362 236.738 132.716C238.673 131.748 240.931 131.748 242.866 131.748C247.381 131.425 250.929 136.591 250.929 140.465Z" fill="#201F40"/>
<path d="M245.446 153.701C243.188 156.283 240.285 158.22 237.06 159.512C233.512 160.803 229.964 161.449 225.772 161.449C219.643 161.126 213.515 158.866 208.677 154.669C207.71 154.024 207.065 153.055 206.42 152.409C212.87 147.567 219.321 147.567 226.094 150.472C229.642 148.213 233.512 147.567 237.383 148.858C240.608 149.504 243.188 151.118 245.446 153.701Z" fill="#96B3FF"/>
</svg>
