<svg width="577" height="491" viewBox="0 0 577 491" fill="none" xmlns="http://www.w3.org/2000/svg">
<path d="M398.782 367.864C466.504 300.142 466.504 190.343 398.782 122.621C331.06 54.8994 221.261 54.8994 153.54 122.621C85.8177 190.343 85.8177 300.142 153.54 367.864C221.261 435.585 331.06 435.585 398.782 367.864Z" fill="#CBD0E9"/>
<mask id="mask0" mask-type="alpha" maskUnits="userSpaceOnUse" x="30" y="0" width="492" height="491">
<path d="M398.782 367.864C466.504 300.142 466.504 190.343 398.782 122.621C331.06 54.8994 221.261 54.8994 153.539 122.621C85.8176 190.343 85.8176 300.142 153.539 367.864C221.261 435.585 331.06 435.585 398.782 367.864Z" fill="#E3EAF2"/>
</mask>
<g mask="url(#mask0)">
<path d="M411.664 287.327C417.555 288.219 416.891 296.971 416.144 301.265C415.398 305.558 387.439 315.783 384.868 314.995C382.296 314.207 374.622 304.811 376.198 302.011C379.164 296.743 408.45 286.829 411.664 287.327Z" fill="#5161A9"/>
<path d="M447.692 451.51C494.794 407.643 434.418 302.488 421.082 297.179C407.745 291.869 381.84 304.853 377.132 314.705C372.424 324.556 409.571 395.593 401.731 395.427C388.042 384.58 363.547 365.81 338.928 349.798C317.959 336.233 290.581 332.376 283.613 348.491C276.644 364.607 285.293 383.294 312.795 400.343" fill="#5161A9"/>
<path d="M314.868 435.706C315.283 431.309 315.781 426.891 316.279 422.494C317.295 413.555 318.353 404.698 319.141 396.195C319.576 391.756 319.908 387.401 320.095 383.19C320.708 374.465 320.332 365.698 318.975 357.057C318.269 352.735 316.927 348.542 314.993 344.613C313.682 341.947 311.961 339.504 309.89 337.374C287.822 315.12 193.183 319.226 170.161 338.37C169.897 338.581 169.648 338.81 169.414 339.054C165.856 342.813 163.078 347.24 161.242 352.079C157.587 361.033 154.728 370.292 152.697 379.747C151.556 384.642 150.478 389.765 149.524 395.158C148.03 403.143 146.703 411.584 145.376 420.233C144.753 424.921 144.159 429.649 143.592 434.42" fill="#5669B6"/>
<g style="mix-blend-mode:multiply" opacity="0.4">
<g style="mix-blend-mode:multiply" opacity="0.4">
<path d="M143.696 434.503L153.838 436.888C174.953 441.792 196.477 444.729 218.134 445.661C250.709 447.065 283.316 443.726 314.93 435.747C315.345 431.35 315.843 426.932 316.341 422.535C284.89 430.259 252.501 433.471 220.146 432.076C199.066 431.208 178.119 428.318 157.592 423.448C153.568 422.494 149.524 421.374 145.541 420.358C144.878 425.017 144.262 429.732 143.696 434.503Z" fill="#5669B6"/>
</g>
<g style="mix-blend-mode:multiply" opacity="0.4">
<path d="M149.524 395.241C171.076 398.763 192.814 401.035 214.628 402.044C249.554 403.958 284.585 401.997 319.078 396.195C319.514 391.756 319.846 387.401 320.032 383.19C285.754 388.038 251.084 389.525 216.516 387.629C195.075 386.422 173.736 383.817 152.635 379.83C151.556 384.725 150.478 389.848 149.524 395.241Z" fill="#5669B6"/>
</g>
<g style="mix-blend-mode:multiply" opacity="0.4">
<path d="M161.242 352.162C180.737 356.485 200.509 359.451 220.415 361.039C253.309 363.673 286.4 362.336 318.975 357.057C318.269 352.735 316.927 348.542 314.992 344.613C284.513 348.637 253.694 349.422 223.049 346.956C205.02 345.476 187.104 342.836 169.414 339.054C165.846 342.837 163.068 347.293 161.242 352.162Z" fill="#5669B6"/>
</g>
</g>
<path d="M236.904 335.715C242.466 339.785 248.938 342.433 255.757 343.43C270.276 346.023 269.322 339.054 269.322 339.054L271.686 322.192L275.129 297.635L241.094 292.865L238.19 313.605L235.535 332.5C235.467 333.109 235.557 333.724 235.796 334.288C236.036 334.851 236.418 335.343 236.904 335.715Z" fill="#8B9DEB"/>
<path opacity="0.4" d="M238.19 313.543C241.771 315.414 245.512 316.962 249.369 318.168C254.235 319.664 259.206 320.794 264.24 321.549C266.695 322.002 269.189 322.218 271.686 322.192L275.129 297.635L241.093 292.865L238.19 313.543Z" fill="#5060A8"/>
<path d="M317.627 150.086C334.427 127.002 358.445 154.981 346.934 171.885C366.015 186.797 344.673 209.467 336.003 210.068C334.448 200.756 316.652 169.893 317.627 150.086Z" fill="#151D41"/>
<path d="M342.204 222.429C353.28 277.869 327.354 319.143 265.671 313.833C203.989 308.524 190.507 261.152 181.444 213.096C172.38 165.04 203.076 119.162 254.741 118.975C314.536 118.747 337.144 154.69 342.204 222.429Z" fill="#FFBE9D"/>
<g opacity="0.5">
<path opacity="0.5" d="M225.228 216.684C225.228 216.684 232.487 227.055 225.228 227.407C217.969 227.76 225.228 216.684 225.228 216.684Z" fill="white"/>
<path opacity="0.5" d="M217.388 230.498C217.388 230.498 227.322 244.788 217.388 245.12C207.453 245.452 217.388 230.498 217.388 230.498Z" fill="white"/>
</g>
<path d="M164.167 210.151C170.928 222.595 184.596 221.558 194.054 227.698C199.965 231.514 201.77 244.684 204.839 242.631C212.97 237.197 210.916 209.964 210.916 209.964C210.916 209.964 223.361 207.33 230.807 201.253C234.955 197.976 239.331 190.116 237.693 184.889C237.134 183.108 236.2 181.467 234.955 180.077C240.595 176.778 244.764 171.452 246.611 165.185C246.611 164.874 246.611 164.522 246.798 164.19C252.63 164.984 258.561 164.639 264.261 163.174C281.725 158.507 287.926 147.265 287.926 147.265C287.926 147.265 305.39 159.005 321.34 150.916C321.351 150.966 321.373 151.013 321.404 151.053C321.435 151.094 321.475 151.127 321.52 151.151C321.566 151.174 321.616 151.188 321.667 151.19C321.718 151.193 321.769 151.184 321.817 151.165C325.162 149.999 328.278 148.258 331.025 146.021C333.986 143.497 336.497 140.488 338.451 137.123C342.35 130.383 344.362 121.962 342.142 114.309C340.068 107.091 333.556 100.786 325.674 100.952C324.615 100.984 323.563 101.144 322.543 101.429C322.636 97.0343 321.653 92.6838 319.68 88.7561C315.18 80.045 305.162 75.8346 295.746 76.8302C285.645 77.888 277.349 84.2761 271.894 92.5931C268.337 98.2661 265.875 104.555 264.635 111.135C263.89 110.302 263.071 109.538 262.187 108.854C259.496 106.804 256.317 105.491 252.964 105.044C249.611 104.597 246.199 105.03 243.064 106.303C238.134 108.393 233.958 111.938 231.097 116.466C217.139 117.855 201.542 113.354 189.865 118.54C151.847 135.713 148.425 180.99 164.167 210.151Z" fill="#151D41"/>
<path d="M197.767 256.071C195.216 263.434 183.248 266.089 173.48 259.452C163.711 252.815 156.7 232.821 163.918 221.932C171.136 211.043 188.288 215.896 194.822 228.859C199.737 238.649 199.737 250.326 197.767 256.071Z" fill="#EB996E"/>
<g style="mix-blend-mode:multiply" opacity="0.45">
<path d="M170.182 229.668C170.094 229.579 170.031 229.468 169.999 229.348C169.967 229.227 169.967 229.1 169.998 228.979C170.029 228.858 170.091 228.747 170.178 228.657C170.265 228.567 170.373 228.501 170.493 228.465C172.795 227.884 175.346 229.336 177.275 230.539C179.401 231.806 181.312 233.402 182.937 235.268C186.311 239.067 188.197 243.959 188.247 249.04C188.247 249.973 186.753 250.243 186.546 249.268C185.772 244.777 183.826 240.57 180.904 237.072C180.49 236.616 180.013 236.201 179.577 235.766L178.996 236.429C178.664 236.803 178.312 237.176 178.001 237.57C177.341 238.354 176.751 239.194 176.238 240.08C175.139 241.843 174.475 243.855 173.272 245.535C173.044 245.866 172.401 245.908 172.318 245.535C172.153 243.202 172.822 240.887 174.205 239.001C174.812 238.008 175.507 237.071 176.279 236.201C176.642 235.777 177.037 235.381 177.462 235.019L178.063 234.542C177.406 233.979 176.714 233.459 175.989 232.987C173.938 232.096 171.99 230.983 170.182 229.668Z" fill="#5060A8"/>
</g>
<path d="M238.19 210.669C238.343 210.09 238.687 209.579 239.165 209.218C239.601 208.907 240.181 208.637 240.327 208.118C240.472 207.6 239.87 206.853 239.456 206.314C238.979 205.602 238.772 204.743 238.871 203.892C238.969 203.041 239.368 202.252 239.995 201.668C241.426 200.258 243.687 200.507 245.491 199.864C247.886 199.029 250.193 197.959 252.377 196.67C254.38 195.497 256.221 194.068 257.852 192.418C258.641 191.609 259.491 189.618 260.694 189.39C262.934 188.933 261.876 192.065 262.312 193.144C262.656 193.799 262.914 194.496 263.079 195.218C263.096 196.086 262.85 196.939 262.374 197.665C259.909 202.321 256.279 206.259 251.838 209.093C249.326 210.734 246.658 212.124 243.873 213.241C242.893 213.69 241.817 213.89 240.741 213.822C240.206 213.79 239.69 213.61 239.251 213.302C238.812 212.995 238.466 212.572 238.253 212.08C238.077 211.629 238.055 211.134 238.19 210.669Z" fill="#151D41"/>
<path d="M332.208 201.461C332.172 201.583 332.123 201.701 332.063 201.813C331.827 202.249 331.506 202.632 331.117 202.939C330.728 203.246 330.28 203.47 329.802 203.597C326.361 204.286 322.788 203.727 319.722 202.021C315.852 200.09 312.382 197.444 309.497 194.222C308.449 193.304 307.771 192.036 307.589 190.655C307.692 189.802 307.734 188.942 307.713 188.083C307.713 187.585 307.34 187.129 307.257 186.631C306.863 183.997 309.787 186.133 310.43 186.631C311.716 187.624 313.107 188.472 314.578 189.162C316.685 190.172 318.928 190.871 321.236 191.236C323.6 191.63 326.359 190.821 328.516 192.19C328.961 192.47 329.336 192.851 329.609 193.3C329.883 193.75 330.048 194.258 330.092 194.782C330.092 195.778 329.014 196.856 329.491 197.79C329.968 198.723 330.86 198.661 331.565 199.159C331.883 199.439 332.112 199.806 332.227 200.215C332.341 200.623 332.334 201.056 332.208 201.461Z" fill="#151D41"/>
<path d="M282.057 276.915C288.134 281.789 292.427 275.401 299.064 275.65C300.288 275.65 301.366 275.65 302.32 275.858C307.485 276.335 309.165 277.06 311.778 274.323C314.868 271.066 309.517 261.609 297.259 261.733C292.706 261.756 288.304 263.37 284.815 266.296C280.791 269.926 279.236 274.675 282.057 276.915Z" fill="#EB996E"/>
<path d="M282.057 276.915C288.134 281.789 292.427 275.401 299.064 275.65C300.288 275.65 301.366 275.65 302.32 275.857C301.006 273.107 298.979 270.758 296.451 269.054C293.06 266.823 288.995 265.847 284.96 266.296C280.791 269.926 279.236 274.675 282.057 276.915Z" fill="#EB996E"/>
<path d="M245.491 237.508C246.388 236.545 247.344 235.637 248.353 234.791C250.416 232.97 252.754 231.486 255.28 230.394C257.765 229.28 260.539 228.982 263.203 229.544C264.444 229.795 265.539 230.516 266.262 231.555C266.984 232.594 267.278 233.872 267.082 235.123C266.874 236.015 265.588 235.766 265.547 234.915C265.402 232.323 262.415 231.742 260.341 231.887C258.21 232.136 256.158 232.844 254.326 233.961C252.487 235.038 250.776 236.318 249.224 237.778C247.859 239.52 246.123 240.937 244.143 241.926C244.02 241.955 243.893 241.952 243.772 241.917C243.651 241.883 243.542 241.817 243.454 241.727C243.366 241.637 243.303 241.526 243.271 241.405C243.239 241.283 243.239 241.155 243.272 241.034C243.676 239.678 244.443 238.459 245.491 237.508Z" fill="#323C66"/>
<path d="M312.587 231.058C313.256 230.098 314.02 229.209 314.868 228.403C316.596 226.628 318.662 225.217 320.945 224.255C322.075 223.693 323.327 223.423 324.588 223.47C325.849 223.517 327.078 223.88 328.163 224.524C329.062 225.126 329.714 226.032 330 227.076C330.285 228.12 330.186 229.231 329.718 230.207C329.636 230.394 329.482 230.541 329.292 230.615C329.101 230.689 328.889 230.684 328.702 230.601C328.515 230.519 328.369 230.365 328.295 230.175C328.221 229.984 328.226 229.772 328.308 229.585C328.481 228.801 328.336 227.981 327.904 227.304C327.472 226.627 326.79 226.15 326.006 225.976C324.025 225.714 322.018 226.227 320.406 227.407C318.855 228.31 317.455 229.451 316.258 230.788C315.639 231.472 315.071 232.2 314.557 232.966C314.058 233.826 313.343 234.54 312.483 235.04C312.374 235.086 312.256 235.106 312.139 235.098C312.021 235.09 311.907 235.054 311.806 234.993C311.704 234.933 311.619 234.849 311.557 234.749C311.494 234.649 311.456 234.535 311.446 234.418C311.401 233.81 311.479 233.199 311.675 232.622C311.871 232.044 312.181 231.512 312.587 231.058Z" fill="#323C66"/>
<g style="mix-blend-mode:multiply" opacity="0.15">
<path d="M272.454 230.912C272.454 230.912 278.468 244.497 265.734 252.462C250.966 261.691 238.563 248.314 238.563 248.314C238.563 248.314 268.907 245.514 272.454 230.912Z" fill="#5060A8"/>
</g>
<g style="mix-blend-mode:multiply" opacity="0.15">
<path d="M310.036 236.367C310.036 236.367 312.919 247.899 323.621 250.886C334.323 253.872 333.991 239.458 332.062 235.869C330.776 240.08 319.763 243.543 310.036 236.367Z" fill="#5060A8"/>
</g>
<g style="mix-blend-mode:multiply" opacity="0.45">
<path d="M295.849 209.695C295.869 209.608 295.918 209.531 295.988 209.476C296.057 209.42 296.144 209.39 296.233 209.39C296.322 209.39 296.408 209.42 296.478 209.476C296.547 209.531 296.596 209.608 296.616 209.695C297.231 212.416 297.51 215.202 297.446 217.991C297.57 220.915 297.591 223.861 297.674 226.785C297.799 232.198 297.944 237.632 298.047 243.066C302.693 241.926 307.961 241.926 311.093 246.074C311.676 246.818 312.082 247.686 312.28 248.61C312.478 249.535 312.462 250.493 312.234 251.411C312.006 252.328 311.572 253.182 310.964 253.907C310.357 254.632 309.593 255.209 308.729 255.594C308.273 255.739 307.941 254.992 308.397 254.785C311.985 253.188 311.653 248.563 308.916 246.26C305.639 243.606 301.096 244.186 297.322 245.203C297.168 245.244 297.008 245.249 296.852 245.219C296.696 245.188 296.55 245.122 296.423 245.026C296.297 244.93 296.195 244.806 296.124 244.664C296.053 244.522 296.016 244.366 296.015 244.207C295.863 238.358 295.724 232.509 295.6 226.66C295.6 223.736 295.434 220.791 295.413 217.866C295.219 215.135 295.365 212.39 295.849 209.695Z" fill="#5060A8"/>
</g>
<g style="mix-blend-mode:color">
<path d="M308.398 254.826C311.986 253.229 311.654 248.604 308.916 246.302C305.639 243.647 301.097 244.228 297.322 245.244C297.169 245.285 297.008 245.291 296.852 245.26C296.697 245.23 296.55 245.164 296.424 245.068C296.298 244.971 296.195 244.848 296.124 244.706C296.054 244.564 296.016 244.407 296.015 244.249C295.863 238.4 295.725 232.551 295.601 226.702C295.601 223.778 295.435 220.832 295.414 217.908C295.414 217.908 291.784 239.395 293.153 247.816C294.522 256.237 304.063 255.78 308.398 254.826Z" fill="#EB996E"/>
</g>
<path d="M313.914 320.533C307.837 328.705 323.621 336.316 316.797 343.596C281.746 365.996 201.21 350.814 184.057 328.642C176.383 320.512 179.225 314.891 192.353 310.391C198.264 297.718 196.501 291.724 212.824 295.146C279.651 321.238 320.012 297.925 313.914 320.533Z" fill="#2B2A99"/>
<path d="M216.329 415.297C216.101 394.556 213.633 373.815 214.255 353.075C214.712 337.519 217.034 321.715 223.132 307.3C225.206 302.53 227.28 296.722 232.901 295.499C239.123 294.171 247.233 297.573 253.165 298.817C256.608 299.543 260.32 300.414 262.664 302.965C263.814 304.439 264.601 306.162 264.962 307.996C265.322 309.83 265.245 311.723 264.738 313.522C263.675 317.099 262.286 320.57 260.59 323.893C254.596 337.54 254.119 352.93 255.612 367.821C257.105 382.713 260.486 397.252 261.834 412.082" fill="#2B2A99"/>
<path d="M312.11 395.801C319.183 390.885 323.248 393.353 329.802 393.727C336.356 394.1 335.858 389.288 327.728 386.156C323.58 384.538 314.972 384.704 309.787 386.343C319.369 381.137 328.952 387.484 333.037 385.016C334.8 383.937 333.763 380.1 329.138 378.192C321.576 375.015 313.257 374.093 305.183 375.537C312.94 370.995 321.381 376.387 325.737 375.537C328.723 374.894 326.566 372.281 322.978 370.227C315.822 366.126 307.423 364.755 299.334 366.37C289.441 368.174 279.983 382.381 268.741 399.057C265.423 403.972 262.395 406.067 264.593 413.575C266.792 421.084 274.86 428.198 279.838 428.529C286.267 428.986 296.43 421.83 304.478 412.725C312.525 403.62 319.369 402.044 325.882 401.235C332.395 400.426 332.747 397.232 329.574 395.946C326.4 394.66 321.672 394.328 312.11 395.801Z" fill="#EB996E"/>
<path d="M291.68 426.517C293.277 432.263 285.001 435.229 280.77 436.286C276.539 437.344 255.882 415.94 255.508 413.306C255.135 410.672 260.631 399.803 263.804 400.094C269.861 400.633 290.83 423.365 291.68 426.517Z" fill="#5161A9"/>
<path d="M204.964 385.513C208.822 360.832 201.21 334.263 183.643 334.429C166.076 334.595 152.532 350.13 148.239 382.132" fill="#5161A9"/>
<path d="M286.516 439.107C285.956 424.755 263.556 406.378 252.647 406.088L286.516 439.107Z" fill="#5161A9"/>
<path d="M488.592 317.671C484.227 312.08 479.038 307.185 473.202 303.152C466.912 298.551 460.212 294.538 453.188 291.164C451.259 290.231 449.309 289.36 447.318 288.53C446.364 283.884 446.032 280.649 445.991 280.545C445.949 280.441 477.993 289.049 489.857 293.446C501.721 297.843 502.924 304.687 502.924 304.687C504.873 313.087 500.85 319.06 494.462 322.296C493.865 322.604 493.174 322.675 492.528 322.494C491.881 322.313 491.327 321.894 490.977 321.321C490.23 320.014 489.442 318.811 488.592 317.671Z" fill="#A8B7F9"/>
<path d="M384.93 259.016C372.62 257.432 360.151 257.53 347.867 259.306C341.81 260.323 334.862 262.936 333.348 268.909C331.834 274.883 336.978 280.317 341.644 284.403C362.053 302.405 383.561 320.823 394.409 345.795C398.723 355.73 401.191 366.39 405.111 376.491C409.031 386.592 414.797 396.485 423.777 402.417C430.497 406.814 440.37 408.349 446.011 402.686C454.162 394.598 447.525 379.872 453.208 369.792C456.299 364.337 462.645 361.496 468.888 360.79C475.173 360.504 481.465 361.161 487.555 362.74C491.195 363.686 494.979 363.946 498.713 363.507C500.583 363.258 502.352 362.51 503.833 361.343C505.315 360.175 506.455 358.63 507.134 356.87C508.69 351.685 504.666 346.645 500.912 342.725L481.001 321.673C476.853 317.256 472.331 311.801 473.576 305.869C474.716 300.373 480.628 296.951 486.228 296.785C492.45 296.577 497.262 299.937 502.82 305.081C502.094 300.124 492.761 292.637 488.965 290.563C481.084 286.414 473.03 282.653 464.802 279.28C448.348 272.493 431.303 267.237 413.884 263.579C404.318 261.56 394.654 260.037 384.93 259.016Z" fill="#CAD2F7"/>
<path d="M359.399 277.828C360.519 273.68 407.102 290.272 433.194 304.563C459.286 318.853 488.053 343.576 484.734 346.873C481.416 350.171 456.299 317.837 421.372 305.496C416.643 303.837 414.755 307.155 421.6 312.838C428.444 318.521 420.418 317.318 403.866 305.019C387.315 292.72 358.693 280.441 359.399 277.828Z" fill="#2B2A99"/>
<path d="M396.607 282.66C397.977 277.329 398.64 271.841 398.578 266.337C398.743 269.366 399.075 271.668 399.034 274.634C399.034 277.89 398.038 283.449 400.818 283.573C403.597 283.697 406.563 280.234 408.575 275.277C410.181 271.054 411.037 266.583 411.105 262.065C411.209 260.261 410.648 258.481 409.528 257.063C408.408 255.645 406.807 254.687 405.028 254.37C396.329 252.375 387.372 251.745 378.48 252.503C368.877 253.52 368.711 257.336 366.699 261.795C364.19 267.395 369.23 278.388 373.792 278.678C378.355 278.969 373.44 270.61 376.551 264.16C374.249 268.93 378.314 281.955 383.582 283.386C386.361 284.154 386.527 281.312 386.424 279.757C386.133 275.235 384.349 270.569 386.424 266.109C386.299 269.822 387.087 280.109 389.783 283.22C390.209 283.744 390.755 284.156 391.375 284.421C391.995 284.685 392.671 284.795 393.343 284.74C394.015 284.685 394.664 284.466 395.232 284.104C395.801 283.742 396.273 283.246 396.607 282.66Z" fill="#EB996E"/>
</g>
<path d="M449.599 168.234C449.604 173.465 448.056 178.58 445.153 182.932C442.25 187.283 438.121 190.676 433.289 192.68C428.458 194.685 423.14 195.212 418.009 194.194C412.878 193.176 408.164 190.659 404.464 186.961C400.763 183.264 398.243 178.552 397.22 173.422C396.198 168.291 396.721 162.973 398.722 158.14C400.723 153.307 404.112 149.175 408.461 146.269C412.811 143.362 417.924 141.811 423.155 141.811C430.165 141.811 436.888 144.594 441.847 149.549C446.805 154.503 449.594 161.224 449.599 168.234Z" fill="white"/>
<path d="M423.877 53.1639L420.745 53.1978C414.492 53.2655 409.477 58.3901 409.544 64.644L410.643 166.143C410.71 172.397 415.835 177.412 422.089 177.344L425.221 177.31C431.475 177.242 436.489 172.118 436.422 165.864L435.323 64.3651C435.256 58.1112 430.131 53.0962 423.877 53.1639Z" fill="white"/>
<path d="M415.813 73.3665L416.747 159.814C416.747 164.999 419.816 169.209 423.467 169.168C427.117 169.126 430.041 164.854 430 159.668L429.046 73.2213L415.813 73.3665Z" fill="#E77AEA"/>
<path d="M416.249 111.488L416.788 161.141C416.788 165.6 419.837 169.209 423.487 169.168C427.137 169.126 430.083 165.455 430.02 160.996L429.481 111.488H416.249Z" fill="#2B2A99"/>
<path d="M439.257 170.833C440.699 161.922 434.644 153.53 425.734 152.089C416.823 150.647 408.431 156.702 406.99 165.613C405.548 174.523 411.603 182.915 420.513 184.357C429.424 185.798 437.816 179.743 439.257 170.833Z" fill="#2B2A99"/>
<path d="M132.143 201.73L101.509 167.01H6.06042" stroke="#E77AEA" stroke-width="2" stroke-miterlimit="10" stroke-linecap="round"/>
<path d="M139.153 195.529C140.381 196.914 141.17 198.632 141.42 200.466C141.671 202.3 141.372 204.167 140.561 205.831C139.75 207.494 138.464 208.88 136.866 209.813C135.267 210.745 133.427 211.182 131.58 211.069C129.733 210.956 127.96 210.297 126.488 209.176C125.015 208.055 123.908 206.523 123.306 204.772C122.705 203.022 122.636 201.133 123.109 199.343C123.582 197.554 124.575 195.945 125.962 194.72C127.82 193.08 130.252 192.245 132.725 192.396C135.198 192.548 137.51 193.675 139.153 195.529Z" fill="#E77AEA"/>
<path d="M1 413.99H149.856L259.988 370.601" stroke="#E77AEA" stroke-width="2" stroke-miterlimit="10" stroke-linecap="round"/>
<path d="M262.996 379.478C264.714 378.796 266.192 377.62 267.243 376.098C268.293 374.577 268.87 372.778 268.898 370.929C268.927 369.081 268.408 367.265 267.405 365.711C266.403 364.158 264.962 362.936 263.266 362.201C261.569 361.465 259.693 361.249 257.874 361.58C256.054 361.91 254.374 362.773 253.045 364.058C251.715 365.343 250.796 366.993 250.404 368.8C250.012 370.607 250.164 372.489 250.842 374.21C251.757 376.519 253.55 378.37 255.829 379.358C258.108 380.346 260.685 380.389 262.996 379.478Z" fill="#E77AEA"/>
<path d="M341.976 311.179L439.581 376.035H575.516" stroke="#E77AEA" stroke-width="2" stroke-miterlimit="10" stroke-linecap="round"/>
<path d="M337.186 319.226C335.64 318.201 334.433 316.74 333.718 315.028C333.003 313.317 332.812 311.431 333.168 309.611C333.525 307.791 334.414 306.117 335.722 304.802C337.031 303.487 338.7 302.59 340.518 302.224C342.337 301.858 344.223 302.039 345.938 302.746C347.653 303.452 349.12 304.652 350.154 306.192C351.187 307.733 351.74 309.545 351.743 311.4C351.746 313.255 351.198 315.069 350.169 316.613C348.789 318.675 346.649 320.107 344.216 320.596C341.784 321.086 339.256 320.593 337.186 319.226Z" fill="#E77AEA"/>
<path d="M455.386 194.99L479.508 167.01H553.241" stroke="#E77AEA" stroke-width="2" stroke-miterlimit="10" stroke-linecap="round"/>
<path d="M462.79 200.755C461.581 202.154 459.984 203.162 458.201 203.653C456.419 204.145 454.531 204.097 452.776 203.515C451.02 202.934 449.477 201.846 448.34 200.388C447.203 198.93 446.523 197.168 446.387 195.324C446.251 193.48 446.665 191.637 447.575 190.028C448.486 188.419 449.853 187.116 451.504 186.283C453.155 185.451 455.016 185.126 456.851 185.351C458.686 185.575 460.414 186.338 461.815 187.544C462.748 188.346 463.514 189.325 464.068 190.424C464.622 191.523 464.954 192.72 465.045 193.947C465.135 195.175 464.983 196.408 464.596 197.576C464.209 198.744 463.595 199.825 462.79 200.755Z" fill="#E77AEA"/>
<path d="M510.296 136.4V149H512.096V143.51H517.82V141.854H512.096V138.056H518.144V136.4H510.296ZM519.229 144.518C519.229 147.182 521.101 149.252 523.837 149.252C525.943 149.252 527.077 148.082 527.743 147.002L526.321 146.192C525.853 147.128 525.097 147.776 523.801 147.776C522.217 147.776 521.101 146.786 520.993 145.202H527.941V144.356C527.941 141.8 526.213 139.892 523.621 139.892C521.065 139.892 519.229 141.926 519.229 144.518ZM520.993 143.834C521.119 142.268 522.073 141.368 523.621 141.368C525.169 141.368 526.141 142.322 526.177 143.834H520.993ZM528.731 140.18L532.025 149H534.437L537.731 140.18H535.895L533.339 147.38H533.123L530.567 140.18H528.731ZM538.6 144.518C538.6 147.182 540.472 149.252 543.208 149.252C545.314 149.252 546.448 148.082 547.114 147.002L545.692 146.192C545.224 147.128 544.468 147.776 543.172 147.776C541.588 147.776 540.472 146.786 540.364 145.202H547.312V144.356C547.312 141.8 545.584 139.892 542.992 139.892C540.436 139.892 538.6 141.926 538.6 144.518ZM540.364 143.834C540.49 142.268 541.444 141.368 542.992 141.368C544.54 141.368 545.512 142.322 545.548 143.834H540.364ZM550.798 140.18H549.178V149H550.87V143.852C550.87 142.52 551.554 141.8 552.814 141.8H554.362V140.144H553.354C552.076 140.144 551.356 140.684 551.05 141.62H550.798V140.18Z" fill="white"/>
<path d="M489.296 346.4V359H493.184C496.388 359 498.296 357.38 498.296 354.104V351.296C498.296 348.02 496.388 346.4 493.184 346.4H489.296ZM491.096 348.056H493.148C495.344 348.056 496.496 349.028 496.496 351.332V354.068C496.496 356.372 495.344 357.344 493.148 357.344H491.096V348.056ZM502.042 350.18H500.422V359H502.114V353.852C502.114 352.52 502.798 351.8 504.058 351.8H505.606V350.144H504.598C503.32 350.144 502.6 350.684 502.294 351.62H502.042V350.18ZM514.323 350.18L511.605 356.876H511.389L508.671 350.18H506.835L510.597 359.162L509.103 362.6H510.939L516.159 350.18H514.323ZM522.772 351.296V354.104C522.772 357.38 524.608 359.252 527.704 359.252C530.728 359.252 532.42 357.452 532.42 354.644V354.392H530.62V354.644C530.62 356.408 529.72 357.596 527.704 357.596C525.688 357.596 524.572 356.372 524.572 354.176V351.224C524.572 349.028 525.688 347.804 527.704 347.804C529.72 347.804 530.62 349.01 530.62 350.756V351.008H532.42V350.684C532.42 347.984 530.728 346.148 527.704 346.148C524.608 346.148 522.772 348.02 522.772 351.296ZM533.86 354.59C533.86 357.326 535.804 359.252 538.396 359.252C540.988 359.252 542.932 357.326 542.932 354.59C542.932 351.854 540.988 349.928 538.396 349.928C535.804 349.928 533.86 351.854 533.86 354.59ZM535.552 354.59C535.552 352.646 536.704 351.476 538.396 351.476C540.088 351.476 541.24 352.646 541.24 354.59C541.24 356.534 540.088 357.704 538.396 357.704C536.704 357.704 535.552 356.534 535.552 354.59ZM553.085 359V350.18H551.393V354.788C551.393 356.624 550.367 357.668 548.729 357.668C547.289 357.668 546.461 356.876 546.461 355.346V350.18H544.769V355.49C544.769 357.92 546.353 359.144 548.207 359.144C549.953 359.144 550.763 358.334 551.177 357.506H551.429V359H553.085ZM562.44 350.18V351.566H562.188C561.702 350.756 560.892 349.928 559.164 349.928C556.842 349.928 555.024 351.8 555.024 354.482C555.024 357.164 556.842 359.036 559.164 359.036C560.892 359.036 561.702 358.208 562.188 357.398H562.404V358.64C562.404 360.476 561.27 361.34 559.65 361.34C558.102 361.34 557.184 360.476 556.68 359.522L555.168 360.404C556.032 361.682 557.382 362.852 559.758 362.852C562.404 362.852 564.096 361.106 564.096 358.73V350.18H562.44ZM559.596 357.524C557.904 357.524 556.716 356.444 556.716 354.482C556.716 352.52 557.904 351.44 559.596 351.44C561.324 351.44 562.404 352.592 562.404 354.482C562.404 356.372 561.324 357.524 559.596 357.524ZM566.621 346.4V359H568.313V354.392C568.313 352.556 569.339 351.512 570.977 351.512C572.417 351.512 573.245 352.304 573.245 353.834V359H574.937V353.69C574.937 351.26 573.353 350.036 571.499 350.036C569.753 350.036 568.943 350.846 568.529 351.674H568.313V346.4H566.621Z" fill="white"/>
<path d="M6.364 379.148C4.024 379.148 2.152 380.498 2.152 382.64C2.152 384.98 3.79 385.826 6.04 386.312L6.868 386.492C8.47 386.834 9.28 387.32 9.28 388.526C9.28 389.732 8.272 390.632 6.598 390.632C4.528 390.632 3.376 389.534 3.376 387.536V387.104H1.576V387.68C1.576 390.452 3.502 392.252 6.58 392.252C9.172 392.252 11.08 390.794 11.08 388.472C11.08 386.312 9.658 385.304 7.318 384.8L6.49 384.62C4.708 384.224 3.952 383.774 3.952 382.622C3.952 381.506 4.96 380.768 6.364 380.768C8.02 380.768 9.172 381.632 9.172 383.252V383.684H10.972V383.108C10.972 380.534 8.974 379.148 6.364 379.148ZM13.1233 379.4V392H14.8153V387.392C14.8153 385.556 15.8413 384.512 17.4793 384.512C18.9193 384.512 19.7473 385.304 19.7473 386.834V392H21.4393V386.69C21.4393 384.26 19.8553 383.036 18.0013 383.036C16.2553 383.036 15.4453 383.846 15.0313 384.674H14.8153V379.4H13.1233ZM23.2699 387.59C23.2699 390.326 25.2139 392.252 27.8059 392.252C30.3979 392.252 32.3419 390.326 32.3419 387.59C32.3419 384.854 30.3979 382.928 27.8059 382.928C25.2139 382.928 23.2699 384.854 23.2699 387.59ZM24.9619 387.59C24.9619 385.646 26.1139 384.476 27.8059 384.476C29.4979 384.476 30.6499 385.646 30.6499 387.59C30.6499 389.534 29.4979 390.704 27.8059 390.704C26.1139 390.704 24.9619 389.534 24.9619 387.59ZM35.9073 383.18H34.2873V392H35.9793V386.852C35.9793 385.52 36.6633 384.8 37.9233 384.8H39.4713V383.144H38.4633C37.1853 383.144 36.4653 383.684 36.1593 384.62H35.9073V383.18ZM40.3106 383.18V384.656H42.7586V390.488C42.7586 391.388 43.3706 392 44.2346 392H46.5386V390.524H44.9186C44.5946 390.524 44.4506 390.38 44.4506 390.02V384.656H47.0426V383.18H44.4506V380.12H42.7586V383.18H40.3106ZM53.6274 387.59C53.6274 390.326 55.5714 392.252 58.1634 392.252C60.7554 392.252 62.6994 390.326 62.6994 387.59C62.6994 384.854 60.7554 382.928 58.1634 382.928C55.5714 382.928 53.6274 384.854 53.6274 387.59ZM55.3194 387.59C55.3194 385.646 56.4714 384.476 58.1634 384.476C59.8554 384.476 61.0074 385.646 61.0074 387.59C61.0074 389.534 59.8554 390.704 58.1634 390.704C56.4714 390.704 55.3194 389.534 55.3194 387.59ZM63.5489 383.18V384.656H65.9969V392H67.6889V384.656H70.2089V383.18H67.6889V381.38C67.6889 381.02 67.8329 380.876 68.1569 380.876H69.7409V379.4H67.5089C66.6089 379.4 65.9969 380.012 65.9969 380.948V383.18H63.5489ZM77.1612 379.4V392H82.3992C84.5592 392 86.1252 390.722 86.1252 388.598C86.1252 387.122 85.2072 386.132 84.0012 385.79V385.574C85.2612 385.25 86.0892 384.26 86.0892 382.784C86.0892 380.624 84.5412 379.4 82.3632 379.4H77.1612ZM78.9612 381.056H82.2012C83.4792 381.056 84.3612 381.776 84.3612 382.928C84.3612 384.134 83.5332 384.854 82.2372 384.854H78.9612V381.056ZM78.9612 386.51H82.2732C83.5692 386.51 84.3972 387.248 84.3972 388.454C84.3972 389.624 83.5152 390.344 82.2372 390.344H78.9612V386.51ZM89.8019 383.18H88.1819V392H89.8739V386.852C89.8739 385.52 90.5579 384.8 91.8179 384.8H93.3659V383.144H92.3579C91.0799 383.144 90.3599 383.684 90.0539 384.62H89.8019V383.18ZM93.9164 387.518C93.9164 390.182 95.7884 392.252 98.5244 392.252C100.63 392.252 101.764 391.082 102.43 390.002L101.008 389.192C100.54 390.128 99.7844 390.776 98.4884 390.776C96.9044 390.776 95.7884 389.786 95.6804 388.202H102.628V387.356C102.628 384.8 100.9 382.892 98.3084 382.892C95.7524 382.892 93.9164 384.926 93.9164 387.518ZM95.6804 386.834C95.8064 385.268 96.7604 384.368 98.3084 384.368C99.8564 384.368 100.828 385.322 100.864 386.834H95.6804ZM104.136 385.502L105.594 386.168C106.008 385.142 106.854 384.44 108.294 384.44C109.734 384.44 110.58 385.16 110.58 386.366V386.6L107.322 386.906C105.054 387.122 103.956 387.986 103.956 389.588C103.956 391.172 105.234 392.252 107.214 392.252C109.032 392.252 109.95 391.406 110.328 390.614H110.58V392H112.236V386.438C112.236 384.314 110.706 382.928 108.33 382.928C106.17 382.928 104.766 384.134 104.136 385.502ZM105.666 389.516C105.666 388.616 106.476 388.31 107.502 388.22L110.58 387.932V388.076C110.58 389.606 109.572 390.848 107.502 390.848C106.332 390.848 105.666 390.344 105.666 389.516ZM113.471 383.18V384.656H115.919V390.488C115.919 391.388 116.531 392 117.395 392H119.699V390.524H118.079C117.755 390.524 117.611 390.38 117.611 390.02V384.656H120.203V383.18H117.611V380.12H115.919V383.18H113.471ZM121.967 379.4V392H123.659V387.392C123.659 385.556 124.685 384.512 126.323 384.512C127.763 384.512 128.591 385.304 128.591 386.834V392H130.283V386.69C130.283 384.26 128.699 383.036 126.845 383.036C125.099 383.036 124.289 383.846 123.875 384.674H123.659V379.4H121.967Z" fill="white"/>
<path d="M7.296 134.4V147H9.096V141.51H14.82V139.854H9.096V136.056H15.144V134.4H7.296ZM16.429 140.502L17.887 141.168C18.301 140.142 19.147 139.44 20.587 139.44C22.027 139.44 22.873 140.16 22.873 141.366V141.6L19.615 141.906C17.347 142.122 16.249 142.986 16.249 144.588C16.249 146.172 17.527 147.252 19.507 147.252C21.325 147.252 22.243 146.406 22.621 145.614H22.873V147H24.529V141.438C24.529 139.314 22.999 137.928 20.623 137.928C18.463 137.928 17.059 139.134 16.429 140.502ZM17.959 144.516C17.959 143.616 18.769 143.31 19.795 143.22L22.873 142.932V143.076C22.873 144.606 21.865 145.848 19.795 145.848C18.625 145.848 17.959 145.344 17.959 144.516ZM25.7637 138.18V139.656H28.2117V145.488C28.2117 146.388 28.8237 147 29.6877 147H31.9917V145.524H30.3717C30.0477 145.524 29.9037 145.38 29.9037 145.02V139.656H32.4957V138.18H29.9037V135.12H28.2117V138.18H25.7637ZM33.738 135.48C33.738 136.236 34.35 136.812 35.106 136.812C35.862 136.812 36.474 136.236 36.474 135.48C36.474 134.724 35.862 134.148 35.106 134.148C34.35 134.148 33.738 134.724 33.738 135.48ZM35.952 138.18H34.26V147H35.952V138.18ZM45.3188 138.18V139.566H45.0668C44.5808 138.756 43.7708 137.928 42.0428 137.928C39.7208 137.928 37.9028 139.8 37.9028 142.482C37.9028 145.164 39.7208 147.036 42.0428 147.036C43.7708 147.036 44.5808 146.208 45.0668 145.398H45.2828V146.64C45.2828 148.476 44.1488 149.34 42.5288 149.34C40.9808 149.34 40.0628 148.476 39.5588 147.522L38.0468 148.404C38.9108 149.682 40.2608 150.852 42.6368 150.852C45.2828 150.852 46.9748 149.106 46.9748 146.73V138.18H45.3188ZM42.4748 145.524C40.7828 145.524 39.5947 144.444 39.5947 142.482C39.5947 140.52 40.7828 139.44 42.4748 139.44C44.2028 139.44 45.2828 140.592 45.2828 142.482C45.2828 144.372 44.2028 145.524 42.4748 145.524ZM57.7082 147V138.18H56.0162V142.788C56.0162 144.624 54.9902 145.668 53.3522 145.668C51.9122 145.668 51.0842 144.876 51.0842 143.346V138.18H49.3922V143.49C49.3922 145.92 50.9762 147.144 52.8302 147.144C54.5762 147.144 55.3862 146.334 55.8002 145.506H56.0522V147H57.7082ZM59.6469 142.518C59.6469 145.182 61.5189 147.252 64.2549 147.252C66.3609 147.252 67.4949 146.082 68.1609 145.002L66.7389 144.192C66.2709 145.128 65.5149 145.776 64.2189 145.776C62.6349 145.776 61.5189 144.786 61.4109 143.202H68.3589V142.356C68.3589 139.8 66.6309 137.892 64.0389 137.892C61.4829 137.892 59.6469 139.926 59.6469 142.518ZM61.4109 141.834C61.5369 140.268 62.4909 139.368 64.0389 139.368C65.5869 139.368 66.5589 140.322 66.5949 141.834H61.4109Z" fill="white"/>
</svg>
